<svg width="1280" height="326" viewBox="0 0 1280 326" fill="none" xmlns="http://www.w3.org/2000/svg">
<rect width="1280" height="326" fill="#3A3A3A"/>
<path d="M1080.47 187.298C1086 187.298 1090.47 191.775 1090.47 197.298V276C1090.47 281.523 1086 286 1080.47 286H871C865.477 286 861 281.523 861 276V197.298C861 191.775 865.477 187.298 871 187.298H1080.47ZM1004.21 241.821L997.096 229.886L991.629 233.119L993.274 235.999L980.521 254.632L1004.21 241.821ZM941.37 227.441L947.556 215.004L941.882 212.156L940.349 215.097L917.779 214.457L941.37 227.441Z" fill="#151515"/>
<path d="M1043.87 150.995C1046.52 152.647 1051.71 154.055 1062.31 154.397C1073.31 154.397 1082.34 143.836 1082.34 130.074C1082.66 100.086 1051.49 94.389 1034.14 60.9123C1026.17 45.5182 1016.51 45.9022 1014.08 46.0302C1008.76 46.3183 1001.21 50.5109 1001.21 57.8399C1001.19 59.1254 1001.46 60.399 1001.99 61.5708C1002.52 62.7426 1003.3 63.7841 1004.27 64.6217" stroke="#FAC641" stroke-width="2.5" stroke-miterlimit="10" stroke-linecap="round"/>
<path d="M1010.22 79.9038C1011.36 82.6018 1013.74 87.1304 1014.52 92.3248" stroke="#FAC641" stroke-width="2.5" stroke-miterlimit="10" stroke-linecap="round"/>
<path d="M960.022 158.75C953.461 158.75 943.828 198.052 939.667 209.605C940.531 212.006 945.46 215.782 948.148 215.782C953.365 207.045 965.047 188.322 967.095 185.442C968.759 183.106 966.583 158.75 960.022 158.75Z" fill="#FAC641"/>
<path opacity="0.27" d="M962.486 81.1392C961.366 80.4351 961.878 80.9152 961.014 79.603L962.486 81.1392Z" fill="black"/>
<path d="M1003.89 151.565C1004 152.445 1004.18 153.317 1004.41 154.173C1015.07 158.686 1042.88 155.966 1043.65 152.829C1044.33 150.064 1047.73 94.5459 1029.45 87.6489" stroke="#FAC641" stroke-width="2.5" stroke-miterlimit="10" stroke-linecap="round"/>
<path d="M1019.48 88.3722C1005.86 95.2084 1002.84 124.889 1003.23 142.364" stroke="#FAC641" stroke-width="2.5" stroke-miterlimit="10" stroke-linecap="round"/>
<path d="M1023.94 89.8156C1026.76 89.3963 1029.9 88.3882 1029.57 87.8601C1026.45 82.5793 1025.78 77.0746 1025.25 73.9797" stroke="#FAC641" stroke-width="2.5" stroke-linecap="round" stroke-linejoin="round"/>
<path d="M1017.35 82.7426C1017.93 84.138 1018.98 86.6823 1019.48 88.3817" stroke="#FAC641" stroke-width="2.5" stroke-linecap="round" stroke-linejoin="round"/>
<path d="M1034.87 122.617C1035.06 123.948 1034.86 125.597 1034.87 126.602C1034.94 132.042 1034.68 138.123 1031.42 142.7C1030.14 144.492 1028.03 146.22 1025.98 146.188C1022.74 147.468 1017.34 148.941 1017.34 148.941L1009.14 150.733C1009.14 150.733 995.317 153.197 988.5 153.005C986.227 152.941 983.923 152.685 981.651 152.749C980.338 152.781 978.258 153.197 977.01 152.749C976.658 152.621 976.754 151.821 976.818 151.533C977.106 150.445 978.162 149.677 979.09 149.197C981.299 148.109 982.547 148.781 984.819 148.845C986.675 148.877 988.884 147.917 992.116 146.668C995.925 145.164 1000.28 143.372 1004.15 142.06C1008.57 140.555 1013.08 138.955 1017.4 137.195C1018.27 136.859 1019.16 136.571 1020.06 136.331C1019.64 134.005 1019.41 131.651 1019.35 129.29C1019.26 126.73 1019.22 124.041 1019.58 121.513" stroke="#FAC641" stroke-width="2.5" stroke-miterlimit="10" stroke-linecap="round"/>
<path d="M1017.42 113.265C1016.92 116.709 1016.87 119.468 1017.18 120.345C1019.17 121.497 1030.14 125.369 1038.14 121.433C1040.61 114.904 1038.46 94.5171 1030.5 93.2049C1028.42 92.8849 1026.62 93.5538 1025.05 94.8436" stroke="#FAC641" stroke-width="2.5" stroke-miterlimit="10" stroke-linecap="round"/>
<path d="M1020.68 81.632C1020.12 81.9859 1019.51 82.2615 1018.88 82.4514C1015.97 83.3411 1012.84 82.2913 1010.22 79.891" stroke="#FAC641" stroke-width="2.5" stroke-linecap="round" stroke-linejoin="round"/>
<path d="M1020.59 68.2382C1022.75 68.7411 1024.95 69.0316 1027.17 69.1055C1027.55 69.5913 1027.76 70.1858 1027.78 70.8017C1027.76 71.4896 1027.51 72.1512 1027.06 72.6715C1026.61 73.1918 1025.99 73.5381 1025.31 73.6501L1025.25 73.9702" stroke="#FAC641" stroke-width="2.5" stroke-linecap="round" stroke-linejoin="round"/>
<path d="M1010.22 79.9038C1007.94 77.8299 1006.06 74.7479 1005.02 71.0578C1003.93 67.0252 1004.03 63.0566 1005.15 59.8882C1005.75 60.4579 1006.36 61.0083 1007 61.5332" stroke="#FAC641" stroke-width="2.5" stroke-linecap="round" stroke-linejoin="round"/>
<path d="M996.667 153.437C990.906 153.437 970.103 153.277 966.295 153.277L996.667 153.437Z" fill="#FFC88E"/>
<path d="M1000.22 153.725C994.138 153.725 973.143 153.213 969.655 153.213C966.967 149.053 954.421 127.13 953.589 125.465" stroke="#FAC641" stroke-width="4" stroke-linecap="round" stroke-linejoin="round"/>
<path d="M960.022 159.646C959.926 155.166 976.408 153.917 986.81 153.917C991.466 153.917 998.482 154.161 1005.05 154.429C1015.6 158.372 1040.28 156.151 1043.34 153.281C1044.77 154.9 1045.62 157.95 1045.62 163.679C1045.62 177.057 1031 188.226 1013.68 188.226C996.37 188.226 988.656 187.778 987.088 187.394C986.608 191.811 996.85 222.151 997.938 229.96C997.17 232.04 992.081 234.633 989.937 234.633C987.792 234.633 959.286 188.29 960.022 159.646Z" fill="#FAC641"/>
<path d="M997.096 229.886L1004.21 241.821L980.521 254.632L993.274 235.999L991.629 233.119" stroke="#FAC641" stroke-width="2.5" stroke-linecap="round" stroke-linejoin="round"/>
<path d="M947.556 215.004L941.37 227.441L917.779 214.451L940.349 215.097L941.882 212.156" stroke="#FAC641" stroke-width="2.5" stroke-linecap="round" stroke-linejoin="round"/>
</svg>
