<svg width="375" height="409" viewBox="0 0 375 409" fill="none" xmlns="http://www.w3.org/2000/svg">
<rect width="375" height="408" fill="#FAC641"/>
<path d="M327.217 237.033L270.903 226.129C269.032 225.773 267.095 226.161 265.513 227.21C263.932 228.258 262.835 229.881 262.463 231.725L254.914 269.673C260.776 275.736 261.368 290.588 261.368 292.057C261.368 294.597 258.793 298.293 251.772 298.293C251.131 298.293 250.328 297.882 249.452 297.135L249.276 298.019C249.5 298.209 249.613 298.299 249.613 298.299C249.472 299.007 249.046 301.142 248.615 303.198C252.154 307.138 258.793 315.447 258.793 321.617C258.793 326.933 257.622 331.085 247.79 331.085C246.656 331.085 245.05 330.03 243.252 328.324L240.984 339.795C240.684 341.33 240.904 342.92 241.61 344.319C242.316 345.719 243.469 346.851 244.892 347.54C245.065 347.573 283.948 355.343 286.58 355.852C287.249 353.65 290.95 343.835 292.884 342.439C294.819 341.043 313.871 334.585 313.871 334.585C313.871 334.585 313.856 324.39 314.092 322.081C286.702 303.374 303.168 287.107 304.103 288.254C304.563 288.814 312.94 295.896 321.403 303.198L332.886 245.359C333.247 243.514 332.853 241.603 331.791 240.043C330.729 238.483 329.085 237.4 327.217 237.033Z" fill="#151515"/>
<path d="M253.643 235.933C249.897 235.933 248.726 241.708 248.726 244.016C248.726 247.933 252.94 264.111 256.919 264.111C260.898 264.111 265.115 248.163 265.115 246.327C265.115 244.492 260.197 235.933 253.643 235.933Z" stroke="black" stroke-width="2.5" stroke-linecap="round" stroke-linejoin="round"/>
<path d="M236.582 334.154L291.291 344.747" stroke="#C59700" stroke-width="3" stroke-miterlimit="10"/>
<path d="M249.197 267.127C244.279 267.127 241.001 270.82 241.001 274.749C241.001 287.681 248.493 298.304 251.777 298.304C258.799 298.304 261.374 294.608 261.374 292.068C261.369 290.207 260.433 267.127 249.197 267.127Z" stroke="black" stroke-width="2.5" stroke-linecap="round" stroke-linejoin="round"/>
<path d="M248.615 303.19C252.154 307.138 258.793 315.447 258.793 321.617C258.793 326.933 257.622 331.085 247.79 331.085C243.108 331.085 230 312.84 230 305.45C230 301.293 232.575 291.592 239.832 291.592C241.939 291.592 246.622 295.288 247.322 296.212C248.043 296.949 248.809 297.643 249.613 298.291C249.466 299.026 249.046 301.063 248.615 303.19Z" stroke="black" stroke-width="2.5" stroke-linecap="round" stroke-linejoin="round"/>
<path d="M246.621 301.063C246.922 301.36 247.654 302.113 248.607 303.19" stroke="black" stroke-width="2.5" stroke-linecap="round" stroke-linejoin="round"/>
<path d="M250.147 304.961C250.147 304.961 246.605 300.809 244.497 298.962" stroke="black" stroke-width="2.5" stroke-linecap="round" stroke-linejoin="round"/>
<path d="M289.589 407.648L294.739 387.324C294.739 387.324 326.093 360.298 329.136 355.452C332.179 350.606 339.32 322.311 339.218 319.656C339.136 317.809 305.039 289.399 304.103 288.243C303.168 287.088 286.702 303.352 314.092 322.07C313.856 324.378 313.871 334.574 313.871 334.574C313.871 334.574 294.819 341.035 292.884 342.428C290.95 343.821 287.249 353.639 286.58 355.841C284.005 355.343 244.892 347.526 244.892 347.526C244.191 349.375 243.715 367.232 245.822 377.161C244.404 384.321 238.797 407.659 238.797 407.659" stroke="black" stroke-width="2.5" stroke-linecap="round" stroke-linejoin="round"/>
<path d="M282.587 367.413C283.225 365.007 286.319 356.364 287.088 354.302" stroke="black" stroke-width="2.5" stroke-linecap="round" stroke-linejoin="round"/>
</svg>
