<svg width="1280" height="326" viewBox="0 0 1280 326" fill="none" xmlns="http://www.w3.org/2000/svg">
<rect width="1280" height="326" fill="#FAC641"/>
<path fill-rule="evenodd" clip-rule="evenodd" d="M1032.49 215.014C1033.25 214.567 1034.22 214.815 1034.67 215.568L1064.46 265.699C1064.91 266.453 1064.66 267.426 1063.91 267.874C1063.15 268.322 1062.18 268.074 1061.73 267.32L1031.94 217.189C1031.49 216.436 1031.74 215.462 1032.49 215.014Z" fill="#151515"/>
<path fill-rule="evenodd" clip-rule="evenodd" d="M1046.03 215.195C1046.78 214.748 1047.76 214.995 1048.2 215.749L1077.89 265.699C1078.33 266.452 1078.09 267.426 1077.33 267.874C1076.58 268.321 1075.61 268.074 1075.16 267.32L1045.48 217.37C1045.03 216.617 1045.28 215.643 1046.03 215.195Z" fill="#151515"/>
<path fill-rule="evenodd" clip-rule="evenodd" d="M1008.23 215.124C1008.98 215.572 1009.23 216.545 1008.78 217.299L981.387 263.399C980.94 264.153 979.966 264.4 979.213 263.953C978.459 263.505 978.212 262.531 978.659 261.778L1006.05 215.677C1006.5 214.924 1007.48 214.676 1008.23 215.124Z" fill="#151515"/>
<path fill-rule="evenodd" clip-rule="evenodd" d="M1051.3 104.643C1051.3 104.095 1051.75 103.651 1052.29 103.651H1094.64C1094.95 103.651 1095.24 103.796 1095.43 104.042C1095.62 104.288 1095.68 104.608 1095.6 104.907L1064.85 216.313C1064.73 216.743 1064.34 217.041 1063.9 217.041H985.912C985.364 217.041 984.92 216.597 984.92 216.05V212.081C984.92 211.533 985.364 211.089 985.912 211.089H1042.8L1044 186.072C1044.02 185.525 1044.49 185.103 1045.03 185.129C1045.58 185.155 1046 185.62 1045.98 186.167L1044.74 212.128C1044.71 212.657 1044.28 213.072 1043.75 213.072H986.904V215.058H1063.14L1093.34 105.635H1052.29C1051.75 105.635 1051.3 105.191 1051.3 104.643Z" fill="#151515"/>
<path d="M958.617 177.758C952.209 177.758 920.225 252.221 920.225 254.942C920.225 257.662 927.167 260.749 928.191 260.749C929.787 259.268 960.404 215.011 963.591 211.924C966.778 208.836 958.617 177.758 958.617 177.758Z" fill="#151515"/>
<path fill-rule="evenodd" clip-rule="evenodd" d="M969.637 137.331C972.371 137.278 975.037 138.189 977.167 139.904C977.594 140.247 977.662 140.871 977.318 141.298C976.975 141.725 976.35 141.792 975.924 141.449C974.154 140.024 971.938 139.269 969.666 139.314L969.647 139.314C967.296 139.314 965.205 140.038 963.724 141.161C962.242 142.283 961.414 143.76 961.414 145.312C961.414 145.86 960.97 146.304 960.423 146.304C959.875 146.304 959.431 145.86 959.431 145.312C959.431 143.005 960.668 140.987 962.526 139.58C964.38 138.174 966.898 137.333 969.637 137.331Z" fill="#151515"/>
<path fill-rule="evenodd" clip-rule="evenodd" d="M1006.43 125.171C1006.8 125.575 1006.77 126.202 1006.37 126.572C1003.21 129.459 999.093 134.343 997.156 139.979C996.978 140.497 996.414 140.773 995.896 140.595C995.378 140.417 995.102 139.853 995.28 139.335C997.364 133.27 1001.74 128.119 1005.03 125.108C1005.43 124.739 1006.06 124.767 1006.43 125.171Z" fill="#151515"/>
<path fill-rule="evenodd" clip-rule="evenodd" d="M1013.5 109.463C1015.5 108.295 1017.61 107.444 1019.51 107.444C1019.52 107.444 1019.52 107.444 1019.53 107.444C1020.87 107.481 1022.18 107.774 1023.4 108.308C1023.9 108.527 1024.13 109.112 1023.91 109.614C1023.69 110.116 1023.11 110.345 1022.61 110.125C1021.62 109.695 1020.57 109.458 1019.49 109.427C1018.13 109.431 1016.4 110.068 1014.5 111.177C1012.62 112.274 1010.68 113.765 1008.91 115.321C1007.16 116.875 1005.6 118.472 1004.49 119.762C1003.94 120.409 1003.51 120.965 1003.22 121.39C1003.09 121.585 1003 121.737 1002.94 121.848C1002.96 121.878 1002.98 121.914 1003.01 121.958C1003.14 122.16 1003.35 122.427 1003.65 122.748C1004.25 123.387 1005.13 124.166 1006.19 124.967C1008.32 126.575 1011.1 128.194 1013.73 128.961C1014.25 129.115 1014.56 129.665 1014.4 130.191C1014.25 130.717 1013.7 131.019 1013.17 130.866C1010.23 130.008 1007.24 128.244 1004.99 126.55C1003.87 125.699 1002.9 124.846 1002.21 124.103C1001.86 123.734 1001.56 123.372 1001.35 123.036C1001.16 122.746 1000.92 122.313 1000.92 121.842C1000.92 121.508 1001.05 121.199 1001.15 121.011C1001.26 120.785 1001.4 120.539 1001.58 120.284C1001.92 119.771 1002.41 119.151 1002.99 118.471C1004.16 117.107 1005.78 115.446 1007.6 113.835C1009.42 112.226 1011.47 110.646 1013.5 109.463ZM1002.89 121.975C1002.89 121.975 1002.89 121.974 1002.89 121.973L1002.89 121.975Z" fill="#151515"/>
<path fill-rule="evenodd" clip-rule="evenodd" d="M1034.2 102.607C1034.35 103.131 1034.06 103.685 1033.53 103.844C1026.5 105.972 1021.66 111.026 1018.4 117.777C1015.14 124.547 1013.51 132.973 1012.91 141.683C1012.87 142.229 1012.4 142.642 1011.85 142.604C1011.31 142.567 1010.89 142.093 1010.93 141.547C1011.54 132.71 1013.2 124.004 1016.62 116.916C1020.04 109.809 1025.26 104.276 1032.96 101.945C1033.48 101.786 1034.04 102.083 1034.2 102.607Z" fill="#151515"/>
<path fill-rule="evenodd" clip-rule="evenodd" d="M1065.96 126.125C1066.49 125.984 1067.03 126.3 1067.18 126.829C1070.51 139.404 1071.04 154.372 1070.36 166.449C1070.02 172.494 1069.38 177.842 1068.63 181.834C1068.26 183.827 1067.86 185.503 1067.44 186.768C1067.23 187.399 1067.02 187.95 1066.79 188.394C1066.57 188.812 1066.3 189.244 1065.93 189.523M1064.74 187.937C1064.73 187.938 1064.73 187.938 1064.73 187.938C1064.74 187.935 1064.76 187.91 1064.81 187.843C1064.87 187.764 1064.94 187.649 1065.02 187.49C1065.19 187.171 1065.37 186.725 1065.56 186.149C1065.93 184.999 1066.32 183.416 1066.69 181.468C1067.41 177.577 1068.05 172.317 1068.38 166.338C1069.05 154.369 1068.52 139.633 1065.26 127.338C1065.12 126.809 1065.43 126.265 1065.96 126.125M1064.74 187.936L1064.74 187.937L1064.74 187.936Z" fill="#151515"/>
<path fill-rule="evenodd" clip-rule="evenodd" d="M1047.08 102.405C1047.24 101.883 1047.8 101.593 1048.32 101.758C1054.31 103.652 1058.77 108.053 1062.06 113.809C1062.33 114.285 1062.16 114.891 1061.69 115.162C1061.21 115.433 1060.6 115.268 1060.33 114.792C1057.21 109.323 1053.09 105.348 1047.72 103.649C1047.2 103.484 1046.91 102.927 1047.08 102.405Z" fill="#151515"/>
<path fill-rule="evenodd" clip-rule="evenodd" d="M1048.02 88.6862C1048.57 88.6862 1049.01 89.1302 1049.01 89.6779V105.539C1049.01 106.372 1048.52 106.982 1047.98 107.384C1047.44 107.783 1046.73 108.071 1045.99 108.284C1044.48 108.713 1042.54 108.913 1040.64 108.913C1040.09 108.913 1039.64 108.469 1039.64 107.921C1039.64 107.373 1040.09 106.929 1040.64 106.929C1042.43 106.929 1044.18 106.738 1045.44 106.376C1046.08 106.194 1046.53 105.987 1046.8 105.789C1046.93 105.693 1046.99 105.619 1047.01 105.578C1047.02 105.559 1047.03 105.549 1047.03 105.546C1047.03 105.544 1047.03 105.543 1047.03 105.542C1047.03 105.541 1047.03 105.54 1047.03 105.539V89.6779C1047.03 89.1302 1047.47 88.6862 1048.02 88.6862Z" fill="#151515"/>
<path fill-rule="evenodd" clip-rule="evenodd" d="M1033.25 96.1807C1033.79 96.1807 1034.24 96.6247 1034.24 97.1724V102.89C1034.24 103.437 1033.79 103.881 1033.25 103.881C1032.7 103.881 1032.26 103.437 1032.26 102.89V97.1724C1032.26 96.6247 1032.7 96.1807 1033.25 96.1807Z" fill="#151515"/>
<path fill-rule="evenodd" clip-rule="evenodd" d="M1023.88 71.3007C1024.42 71.4081 1024.76 71.9306 1024.66 72.4677C1024.56 72.9313 1024.48 73.3949 1024.41 73.8582C1023.5 79.6032 1024.25 85.0164 1026.14 89.1118C1028.04 93.2134 1031.02 95.8905 1034.58 96.4592C1036.03 96.6847 1037.52 96.5635 1038.92 96.1056C1039.44 95.9353 1040 96.2194 1040.17 96.7399C1040.34 97.2605 1040.06 97.8206 1039.54 97.9908C1037.84 98.546 1036.04 98.6927 1034.27 98.4189L1034.27 98.4182C1029.86 97.7141 1026.42 94.4359 1024.34 89.9445C1022.26 85.4463 1021.49 79.6278 1022.45 73.5478L1022.45 73.5458L1022.45 73.5458C1022.53 73.0566 1022.61 72.5676 1022.71 72.0787C1022.82 71.5416 1023.34 71.1933 1023.88 71.3007Z" fill="#151515"/>
<path fill-rule="evenodd" clip-rule="evenodd" d="M1051.45 82.0135C1051.97 82.1769 1052.26 82.7332 1052.1 83.256C1051.33 85.7083 1050.24 88.0477 1048.86 90.2122C1048.56 90.6737 1047.95 90.8085 1047.49 90.5133C1047.03 90.2182 1046.89 89.6049 1047.19 89.1435C1048.48 87.1273 1049.49 84.9483 1050.2 82.664C1050.37 82.1413 1050.92 81.85 1051.45 82.0135Z" fill="#151515"/>
<path fill-rule="evenodd" clip-rule="evenodd" d="M1072.45 44.9835C1062.43 44.9835 1057.35 50.8416 1055.35 54.2977L1053.64 53.3057C1055.86 49.4532 1061.5 43 1072.45 43C1075.94 43 1079.41 43.8728 1082.94 44.7587C1083.18 44.8176 1083.41 44.8766 1083.65 44.9354C1087.46 45.8879 1091.4 46.8115 1095.79 46.8115C1099.11 46.8115 1102.32 46.1779 1105.8 45.4921C1105.95 45.4618 1106.11 45.4314 1106.26 45.4009C1109.9 44.6861 1113.79 43.9529 1118.19 43.9529C1126.04 43.9529 1131.32 46.5394 1134.63 50.0402C1137.92 53.5168 1139.19 57.8178 1139.19 61.1437C1139.19 69.3112 1135.83 75.0741 1131.19 78.7733C1126.59 82.4463 1120.76 84.0518 1115.8 84.0518C1108.24 84.0518 1103.81 81.5403 1099.37 79.0293C1099.17 78.9137 1098.97 78.7982 1098.76 78.683C1094.18 76.0987 1089.35 73.57 1080.55 73.57C1076.01 73.57 1072.67 72.6482 1070.17 71.2033C1067.67 69.7564 1066.09 67.8267 1064.98 65.9314C1064.18 64.5597 1063.61 63.1493 1063.14 62.0053C1062.98 61.6057 1062.83 61.2385 1062.69 60.9169C1062.4 60.2563 1062.16 59.815 1061.93 59.5436C1061.72 59.3046 1061.6 59.2768 1061.49 59.2768H1061.47L1061.45 59.2761C1060.65 59.2465 1059.84 59.3367 1059.06 59.5438L1058.55 57.6266C1059.51 57.3707 1060.51 57.2584 1061.51 57.2934C1062.35 57.2999 1062.97 57.7164 1063.43 58.2548C1063.87 58.765 1064.21 59.4404 1064.51 60.1198C1064.68 60.523 1064.85 60.9429 1065.03 61.3766C1065.48 62.4895 1065.97 63.6925 1066.69 64.932C1067.67 66.61 1069.04 68.2535 1071.17 69.4866C1073.3 70.7217 1076.28 71.5866 1080.55 71.5866C1089.85 71.5866 1095.03 74.2988 1099.74 76.9554C1099.93 77.0649 1100.12 77.1742 1100.32 77.283C1104.73 79.7794 1108.77 82.0683 1115.8 82.0683C1120.38 82.0683 1125.75 80.577 1129.96 77.2224C1134.13 73.8941 1137.21 68.6988 1137.21 61.1437C1137.21 58.2759 1136.1 54.4773 1133.19 51.4028C1130.3 48.3525 1125.58 45.9364 1118.19 45.9364C1114.01 45.9364 1110.28 46.6324 1106.65 47.347C1106.47 47.3814 1106.3 47.4159 1106.12 47.4503C1102.69 48.1264 1099.3 48.795 1095.79 48.795C1091.13 48.795 1086.98 47.8129 1083.17 46.8596C1082.95 46.8064 1082.74 46.7533 1082.53 46.7005C1078.93 45.7983 1075.68 44.9835 1072.45 44.9835Z" fill="#151515"/>
<path fill-rule="evenodd" clip-rule="evenodd" d="M1023.25 55.4795C1026.43 51.5723 1031.81 48.2408 1040.53 48.2408C1043.78 48.2408 1049.23 49.102 1053.89 52.1547C1058.62 55.2463 1062.48 60.5534 1062.48 69.2432C1062.48 74.3936 1061.55 79.113 1059.54 82.5818C1057.51 86.0957 1054.35 88.3398 1050.06 88.3398C1049.51 88.3398 1049.06 87.8957 1049.06 87.348C1049.06 86.8003 1049.51 86.3563 1050.06 86.3563C1053.53 86.3563 1056.08 84.6006 1057.83 81.5885C1059.6 78.5312 1060.5 74.1981 1060.5 69.2432C1060.5 61.2575 1057 56.5592 1052.81 53.8145C1048.55 51.0307 1043.52 50.2243 1040.53 50.2243C1032.39 50.2243 1027.58 53.3034 1024.79 56.7322C1021.95 60.2128 1021.14 64.1189 1021.14 65.7556C1021.14 67.3997 1021.66 68.8294 1022.31 69.8479C1022.54 70.213 1022.78 70.5148 1023.01 70.7494C1023.53 68.7546 1024.42 66.6348 1025.23 64.9215C1025.74 63.8524 1026.23 62.9193 1026.61 62.2418C1026.8 61.9034 1026.96 61.6252 1027.08 61.4232C1027.14 61.3232 1027.2 61.236 1027.24 61.1672C1027.26 61.1337 1027.29 61.0965 1027.32 61.0614C1027.32 61.06 1027.39 60.9503 1027.51 60.8564C1027.9 60.5329 1028.47 60.556 1028.83 60.91C1030.32 62.3607 1032.06 63.5248 1033.97 64.3439C1034.47 64.5599 1034.71 65.143 1034.49 65.6463C1034.28 66.1497 1033.69 66.3827 1033.19 66.1668C1031.44 65.4151 1029.81 64.4035 1028.37 63.1682C1028.36 63.1804 1028.35 63.1927 1028.34 63.2052C1027.99 63.8501 1027.51 64.7465 1027.02 65.775C1026.03 67.8541 1025.01 70.3853 1024.66 72.4567C1024.58 72.9625 1024.12 73.3201 1023.61 73.2813C1023 73.2354 1022.44 72.8899 1021.99 72.5105C1021.51 72.1071 1021.04 71.559 1020.63 70.9087C1019.81 69.6069 1019.16 67.8135 1019.16 65.7556C1019.16 63.6904 1020.11 59.335 1023.25 55.4795Z" fill="#151515"/>
<path fill-rule="evenodd" clip-rule="evenodd" d="M1050.98 75.7236C1050.54 75.7218 1050.1 75.8165 1049.69 76.0011C1049.19 76.2283 1048.6 76.0084 1048.38 75.51C1048.15 75.0117 1048.37 74.4235 1048.87 74.1963C1049.53 73.8931 1050.26 73.7375 1050.99 73.7401C1052.34 73.7407 1053.64 74.2788 1054.6 75.2363C1055.55 76.1943 1056.09 77.4935 1056.09 78.8483C1056.09 80.2031 1055.55 81.5024 1054.6 82.4604C1053.64 83.4182 1052.34 83.9564 1050.99 83.9565" fill="#151515"/>
<path fill-rule="evenodd" clip-rule="evenodd" d="M1047.02 147.206C1047.42 147.579 1047.45 148.206 1047.08 148.607C1040.47 155.714 1031.66 158.625 1026.9 158.625C1020.97 158.625 1016.22 157.033 1011.33 155.04C1010.82 154.833 1010.58 154.255 1010.78 153.747C1010.99 153.24 1011.57 152.996 1012.08 153.203C1016.89 155.164 1021.36 156.641 1026.9 156.641C1031.08 156.641 1039.38 153.978 1045.62 147.257C1045.99 146.856 1046.62 146.833 1047.02 147.206Z" fill="#151515"/>
<path fill-rule="evenodd" clip-rule="evenodd" d="M1034.1 134.166C1034.43 134.608 1034.33 135.228 1033.89 135.553C1030.56 138.001 1027.78 141.115 1025.73 144.696C1025.52 145.061 1025.1 145.254 1024.68 145.177C1024.04 145.057 1023.09 144.854 1021.9 144.598C1015.63 143.257 1002.57 140.463 990.753 140.463C990.317 140.463 989.769 140.377 989.232 140.274C988.693 140.17 988.093 140.034 987.509 139.901L987.46 139.89C986.853 139.752 986.265 139.62 985.744 139.521C985.208 139.419 984.808 139.367 984.559 139.367C976.655 139.367 975.489 143.541 975.489 144.202C975.489 144.353 975.493 144.477 975.499 144.579C991.747 144.652 1001.16 148.614 1009.11 151.966C1010.12 152.39 1011.1 152.803 1012.07 153.198C1012.58 153.405 1012.82 153.983 1012.62 154.491C1012.41 154.998 1011.83 155.242 1011.32 155.035C1010.34 154.636 1009.35 154.219 1008.34 153.795C1000.35 150.43 991.16 146.561 975.04 146.561C975.038 146.561 975.036 146.561 975.033 146.561C974.956 146.561 974.732 146.562 974.489 146.468C974.199 146.356 973.972 146.15 973.818 145.888C973.565 145.459 973.505 144.871 973.505 144.202C973.505 142.205 975.817 137.383 984.559 137.383C985.008 137.383 985.565 137.468 986.113 137.572C986.676 137.679 987.299 137.82 987.899 137.956L987.931 137.963C988.528 138.099 989.101 138.229 989.606 138.326C990.137 138.428 990.522 138.479 990.753 138.479C1002.82 138.479 1016.19 141.344 1022.39 142.673C1023.17 142.84 1023.83 142.983 1024.37 143.093C1026.52 139.531 1029.36 136.425 1032.72 133.955C1033.16 133.631 1033.78 133.725 1034.1 134.166ZM975.023 144.577C975.023 144.577 975.026 144.577 975.033 144.578C975.026 144.578 975.022 144.577 975.023 144.577Z" fill="#151515"/>
<path fill-rule="evenodd" clip-rule="evenodd" d="M1064.6 117.013C1062.31 114.789 1058.45 114.635 1053.81 115.955C1053.28 116.105 1052.73 115.799 1052.58 115.272C1052.43 114.745 1052.74 114.197 1053.27 114.047C1058.04 112.69 1062.87 112.573 1065.98 115.59L1065.98 115.59C1068.59 118.118 1068.79 121.69 1067.83 125.309C1066.87 128.935 1064.69 132.846 1062.17 136.408C1059.64 139.981 1056.72 143.268 1054.18 145.648C1052.92 146.836 1051.73 147.816 1050.72 148.495C1050.22 148.834 1049.74 149.112 1049.31 149.304C1048.9 149.483 1048.41 149.638 1047.93 149.591C1047.25 149.525 1046.49 149.175 1045.76 148.742C1045 148.291 1044.15 147.678 1043.26 146.959C1041.48 145.519 1039.47 143.603 1037.58 141.577C1035.7 139.552 1033.91 137.393 1032.57 135.46C1031.91 134.495 1031.34 133.568 1030.94 132.731C1030.54 131.916 1030.25 131.092 1030.23 130.357C1030.21 129.692 1030.52 129.018 1030.89 128.439C1031.28 127.823 1031.83 127.151 1032.5 126.454C1033.83 125.056 1035.7 123.467 1037.89 121.9C1038.33 121.58 1038.95 121.682 1039.27 122.126C1039.59 122.571 1039.49 123.191 1039.04 123.51C1036.93 125.03 1035.16 126.539 1033.93 127.823C1033.32 128.467 1032.86 129.032 1032.57 129.497C1032.42 129.729 1032.33 129.918 1032.27 130.066C1032.24 130.138 1032.23 130.194 1032.22 130.235C1032.22 130.255 1032.21 130.27 1032.21 130.28C1032.21 130.285 1032.21 130.289 1032.21 130.291L1032.21 130.294C1032.21 130.295 1032.21 130.295 1032.21 130.295L1032.21 130.299C1032.22 130.609 1032.37 131.128 1032.72 131.866C1033.07 132.582 1033.57 133.418 1034.21 134.334C1035.47 136.165 1037.19 138.248 1039.04 140.225C1040.88 142.202 1042.82 144.049 1044.51 145.417C1045.36 146.101 1046.12 146.652 1046.77 147.036C1047.45 147.439 1047.89 147.595 1048.12 147.617C1048.11 147.617 1048.11 147.617 1048.12 147.616C1048.15 147.612 1048.27 147.594 1048.51 147.486C1048.8 147.361 1049.17 147.152 1049.61 146.851C1050.5 146.252 1051.6 145.348 1052.82 144.202C1055.26 141.912 1058.1 138.726 1060.55 135.262C1063.01 131.787 1065.04 128.099 1065.91 124.801C1066.79 121.495 1066.46 118.818 1064.6 117.013Z" fill="#151515"/>
<path d="M1083.64 146.641H882V153.15H1083.64V146.641Z" fill="#151515"/>
<path fill-rule="evenodd" clip-rule="evenodd" d="M1072.81 149.743C1073.69 149.743 1074.4 150.453 1074.4 151.33V250.211C1074.4 251.087 1073.69 251.797 1072.81 251.797C1071.93 251.797 1071.22 251.087 1071.22 250.211V151.33C1071.22 150.453 1071.93 149.743 1072.81 149.743Z" fill="#151515"/>
<path fill-rule="evenodd" clip-rule="evenodd" d="M905.269 149.743C906.146 149.743 906.856 150.453 906.856 151.33V250.211C906.856 251.087 906.146 251.797 905.269 251.797C904.393 251.797 903.682 251.087 903.682 250.211V151.33C903.682 150.453 904.393 149.743 905.269 149.743Z" fill="#151515"/>
<path fill-rule="evenodd" clip-rule="evenodd" d="M1058.65 149.743C1059.53 149.743 1060.24 150.453 1060.24 151.33V270.026C1060.24 270.902 1059.53 271.613 1058.65 271.613C1057.77 271.613 1057.06 270.902 1057.06 270.026V151.33C1057.06 150.453 1057.77 149.743 1058.65 149.743Z" fill="#151515"/>
<path fill-rule="evenodd" clip-rule="evenodd" d="M890.309 149.743C891.186 149.743 891.896 150.453 891.896 151.33V270.026C891.896 270.902 891.186 271.613 890.309 271.613C889.433 271.613 888.723 270.902 888.723 270.026V151.33C888.723 150.453 889.433 149.743 890.309 149.743Z" fill="#151515"/>
<path fill-rule="evenodd" clip-rule="evenodd" d="M1022.07 215.124C1022.82 215.572 1023.07 216.545 1022.62 217.299L991.659 269.388C991.212 270.142 990.238 270.389 989.485 269.942C988.731 269.494 988.483 268.52 988.931 267.767L1019.89 215.677C1020.34 214.924 1021.31 214.676 1022.07 215.124Z" fill="#151515"/>
<path d="M989.476 145.446H955.996V146.641H989.476V145.446Z" fill="#151515"/>
<path fill-rule="evenodd" clip-rule="evenodd" d="M917.866 67.5043C917.866 66.9566 918.31 66.5126 918.858 66.5126H991.954C992.501 66.5126 992.945 66.9566 992.945 67.5043V120.585C992.945 121.133 992.501 121.577 991.954 121.577H959.803C959.255 121.577 958.811 121.133 958.811 120.585C958.811 120.037 959.255 119.593 959.803 119.593H990.962V68.496H919.849V119.593H942.346C942.894 119.593 943.338 120.037 943.338 120.585C943.338 121.133 942.894 121.577 942.346 121.577H918.858C918.31 121.577 917.866 121.133 917.866 120.585V67.5043Z" fill="#151515"/>
<path fill-rule="evenodd" clip-rule="evenodd" d="M944.183 110.336C944.303 109.908 944.693 109.612 945.138 109.612H962.514C962.823 109.612 963.114 109.756 963.302 110.001C963.49 110.246 963.552 110.565 963.471 110.863L953.685 146.901C953.568 147.333 953.176 147.633 952.728 147.633H935.057C934.746 147.633 934.454 147.488 934.267 147.241C934.079 146.994 934.018 146.673 934.102 146.374L944.183 110.336ZM945.891 111.595L936.364 145.65H951.97L961.217 111.595H945.891Z" fill="#151515"/>
<path fill-rule="evenodd" clip-rule="evenodd" d="M1026.56 58.6613C1027.07 58.4771 1027.64 58.746 1027.82 59.2619C1028.05 59.8859 1028.4 60.4561 1028.86 60.9355C1029.23 61.3317 1029.22 61.9595 1028.82 62.3376C1028.43 62.7158 1027.8 62.7011 1027.42 62.3048C1026.77 61.6242 1026.27 60.8147 1025.96 59.9287C1025.77 59.4129 1026.04 58.8454 1026.56 58.6613Z" fill="#151515"/>
<path fill-rule="evenodd" clip-rule="evenodd" d="M980.426 264.662C980.965 264.564 981.482 264.92 981.58 265.459L983.696 277.022C983.793 277.557 983.443 278.071 982.909 278.174L958.153 282.982C957.686 283.072 957.221 282.819 957.044 282.378C956.867 281.937 957.027 281.432 957.427 281.175L973.81 270.616L973.115 266.682C973.02 266.143 973.38 265.628 973.919 265.533C974.458 265.438 974.973 265.798 975.068 266.337L975.878 270.92C975.948 271.314 975.774 271.71 975.439 271.927L962.828 280.053L981.568 276.414L979.629 265.816C979.53 265.277 979.887 264.761 980.426 264.662Z" fill="#151515"/>
<path fill-rule="evenodd" clip-rule="evenodd" d="M923.23 254.845C923.698 255.129 923.849 255.738 923.566 256.207L921.174 260.166C920.964 260.514 920.564 260.698 920.163 260.632L905.209 258.162L921.944 268.128L927.42 258.941C927.701 258.47 928.309 258.316 928.78 258.597C929.25 258.877 929.404 259.486 929.124 259.956L923.14 269.995C922.86 270.465 922.251 270.62 921.781 270.339L899.683 257.18C899.274 256.936 899.095 256.435 899.259 255.987C899.423 255.54 899.882 255.272 900.352 255.349L919.824 258.566L921.868 255.181C922.151 254.713 922.761 254.562 923.23 254.845Z" fill="#151515"/>
<path d="M1065.27 192.88C1065.27 190.831 1065.63 188.459 1064.35 187.93C1034.04 175.433 989.662 173.813 982.825 173.813C975.988 173.813 955.996 174.508 955.996 180.231C955.996 200.899 967.512 264.528 969.851 266.905C970.961 268.025 980.642 267.277 981.848 266.067C981.767 260.826 984.811 208.183 982.034 201.809C1007.51 211.147 1036.44 215.568 1044.06 215.568C1066.15 215.545 1065.27 195.31 1065.27 192.88Z" fill="#151515"/>
<path d="M788.832 246.443V259.126H796.271C793.343 255.178 790.849 250.925 788.832 246.443Z" fill="#DFDFDF"/>
<path fill-rule="evenodd" clip-rule="evenodd" d="M771.172 160.445C772.1 159.523 773.11 159 774.111 159C781.393 159 787.986 162.283 793.817 167.421C799.646 172.558 804.742 179.572 809.047 187.108C817.655 202.178 823.152 219.431 825.002 228.212L825.002 228.212C826.019 233.054 828.071 237.167 830.11 241.253C830.437 241.908 830.763 242.563 831.085 243.22C833.405 247.952 835.467 252.777 835.467 258.652C835.467 266.563 834.294 272.584 832.804 276.644C832.06 278.672 831.231 280.228 830.416 281.288C830.008 281.817 829.594 282.236 829.184 282.527C828.777 282.815 828.34 283 827.898 283C826.85 283 825.366 282.644 823.601 281.977C821.824 281.305 819.721 280.303 817.423 278.972C812.827 276.311 807.428 272.325 802.271 267.016C791.954 256.395 782.585 240.458 782.576 219.227V219.226C782.576 219.082 782.533 218.86 782.42 218.547C782.309 218.239 782.141 217.872 781.919 217.446C781.475 216.594 780.835 215.545 780.056 214.318C779.643 213.669 779.192 212.971 778.713 212.23C777.391 210.185 775.857 207.81 774.325 205.212C770.157 198.142 765.932 189.296 765.932 180.558C765.932 173.426 767.038 168.091 768.581 164.519C769.352 162.733 770.24 161.37 771.172 160.445ZM769.52 164.924C768.047 168.333 766.955 173.521 766.955 180.558C766.955 189.004 771.052 197.647 775.206 204.693C776.726 207.27 778.243 209.618 779.562 211.659C780.044 212.405 780.499 213.109 780.919 213.77C781.7 214.998 782.36 216.079 782.826 216.974C783.059 217.421 783.249 217.832 783.382 218.199C783.512 218.559 783.599 218.91 783.599 219.226H783.088H783.599C783.607 240.133 792.828 255.826 803.004 266.303C808.094 271.542 813.417 275.471 817.936 278.087C820.195 279.395 822.247 280.372 823.963 281.02C825.691 281.673 827.037 281.977 827.898 281.977C828.054 281.977 828.286 281.909 828.593 281.692C828.895 281.478 829.238 281.14 829.605 280.664C830.337 279.712 831.123 278.257 831.844 276.292C833.285 272.366 834.444 266.468 834.444 258.652C834.444 253.026 832.476 248.38 830.167 243.67C829.85 243.024 829.527 242.376 829.201 241.724C827.164 237.643 825.047 233.404 824.001 228.423C822.169 219.73 816.707 202.58 808.159 187.615C803.885 180.134 798.854 173.223 793.141 168.189C787.429 163.156 781.066 160.023 774.111 160.023C773.476 160.023 772.709 160.359 771.893 161.17C771.08 161.977 770.256 163.219 769.52 164.924Z" fill="#151515"/>
<path fill-rule="evenodd" clip-rule="evenodd" d="M773.715 161.461C773.879 161.231 774.198 161.177 774.428 161.341C779.137 164.695 783.883 170.488 788.362 177.324C792.848 184.17 797.093 192.105 800.787 199.784C804.482 207.465 807.63 214.899 809.921 220.748C812.205 226.576 813.655 230.874 813.932 232.26C814.455 234.885 816.407 241.012 818.459 247C820.509 252.982 822.633 258.754 823.487 260.66C824.377 262.647 825.653 267.53 826.699 272.15C827.225 274.473 827.696 276.748 828.037 278.589C828.374 280.407 828.593 281.856 828.593 282.488C828.593 282.771 828.364 283 828.082 283C827.799 283 827.57 282.771 827.57 282.488C827.57 281.969 827.373 280.623 827.031 278.775C826.693 276.95 826.225 274.688 825.701 272.376C824.649 267.729 823.394 262.954 822.554 261.078C821.677 259.122 819.538 253.305 817.491 247.331C815.446 241.363 813.468 235.166 812.929 232.46C812.673 231.18 811.26 226.969 808.969 221.121C806.685 215.293 803.547 207.882 799.865 200.228C796.182 192.572 791.959 184.68 787.507 177.885C783.048 171.079 778.385 165.416 773.835 162.174C773.605 162.01 773.551 161.691 773.715 161.461Z" fill="#151515"/>
<path fill-rule="evenodd" clip-rule="evenodd" d="M788.02 245.346C788.077 245.07 788.347 244.891 788.624 244.947L819.686 251.273C819.963 251.329 820.141 251.599 820.085 251.876C820.029 252.153 819.759 252.331 819.482 252.275L788.419 245.95C788.143 245.893 787.964 245.623 788.02 245.346Z" fill="#151515"/>
<path fill-rule="evenodd" clip-rule="evenodd" d="M792.189 253.679C792.213 253.397 792.46 253.188 792.741 253.212L821.189 255.581C821.471 255.604 821.68 255.851 821.657 256.133C821.633 256.414 821.386 256.623 821.104 256.6L792.657 254.231C792.375 254.208 792.166 253.96 792.189 253.679Z" fill="#151515"/>
<path fill-rule="evenodd" clip-rule="evenodd" d="M782.831 219.446C782.913 219.176 783.199 219.023 783.469 219.105L812.343 227.844C812.613 227.926 812.766 228.212 812.684 228.482C812.602 228.752 812.317 228.905 812.046 228.823L783.173 220.084C782.902 220.002 782.75 219.717 782.831 219.446Z" fill="#151515"/>
<path fill-rule="evenodd" clip-rule="evenodd" d="M824.171 231.196C824.337 231.424 824.286 231.744 824.058 231.91L815.245 238.318C815.016 238.484 814.697 238.433 814.53 238.205C814.364 237.976 814.415 237.656 814.643 237.49L823.456 231.083C823.685 230.917 824.005 230.967 824.171 231.196Z" fill="#151515"/>
<path fill-rule="evenodd" clip-rule="evenodd" d="M807.304 185.55C807.516 185.737 807.536 186.06 807.349 186.272L798.643 196.145C798.456 196.357 798.133 196.377 797.921 196.19C797.709 196.004 797.689 195.68 797.876 195.468L806.582 185.596C806.769 185.384 807.092 185.364 807.304 185.55Z" fill="#151515"/>
<path fill-rule="evenodd" clip-rule="evenodd" d="M803.251 180.085C803.479 180.252 803.527 180.573 803.36 180.8L795.95 190.853C795.782 191.08 795.462 191.129 795.235 190.961C795.008 190.793 794.959 190.473 795.127 190.246L802.536 180.193C802.704 179.966 803.024 179.917 803.251 180.085Z" fill="#151515"/>
<path d="M783.104 219.226C783.104 217.078 777.462 210.147 772.749 201.338C764.091 194.825 756.334 190.872 752.148 190.872C749.693 190.872 748.593 195.283 748.593 197.619C748.593 222.078 774.815 250.51 797.731 261.078C789.597 250.812 783.104 236.86 783.104 219.226Z" fill="black"/>
</svg>
