<svg width="66" height="60" viewBox="0 0 66 60" fill="none" xmlns="http://www.w3.org/2000/svg">
<circle cx="27.2" cy="29.4433" r="27.2" fill="#FAC641"/>
<path d="M36.1946 0C19.9532 0 6.7417 13.2115 6.7417 29.4529C6.7417 45.6943 19.9532 58.9058 36.1946 58.9058C39.5542 58.9049 42.8897 58.3266 46.0544 57.1946L61.9726 59.9856C62.0516 59.997 62.1311 60.0014 62.211 59.9996C62.68 59.9966 63.1169 59.7603 63.376 59.3691C63.6351 58.9774 63.682 58.4834 63.5011 58.05L59.1675 47.8538C63.3725 42.6442 65.6602 36.1476 65.6471 29.4529C65.6471 13.2115 52.4355 0 36.1946 0V0ZM61.0188 39.1581C59.9347 41.9092 58.3991 44.4591 56.4745 46.7038C56.1254 47.1065 56.0384 47.6734 56.2505 48.1621L59.9105 56.7739L46.1659 54.3755C46.0869 54.3641 46.0078 54.3588 45.9275 54.3619C45.7606 54.361 45.5946 54.3896 45.4366 54.4458C42.48 55.5475 39.35 56.1126 36.1946 56.1148C21.4958 56.1148 9.54674 44.1649 9.54674 29.467C9.54674 14.7686 21.4958 2.81909 36.1946 2.81909C50.8929 2.81909 62.842 14.7686 62.842 29.467C62.8521 32.7831 62.2334 36.0721 61.0188 39.1581Z" fill="#151515"/>
<path d="M46.4466 22.1457L33.1227 34.8803L25.97 27.7276C25.4242 27.1814 24.539 27.1814 23.9927 27.7276C23.4464 28.2739 23.4464 29.1591 23.9927 29.7054L32.1132 37.8258C32.3758 38.0911 32.7354 38.2377 33.1091 38.2329C33.4709 38.236 33.8195 38.0946 34.0764 37.8399L48.3963 24.1656C48.6641 23.9091 48.82 23.5561 48.8275 23.1855C48.8354 22.8144 48.6957 22.4557 48.4384 22.1878C47.8987 21.6293 47.0095 21.6104 46.4466 22.1457Z" fill="#151515"/>
</svg>
