<svg width="45" height="61" viewBox="0 0 45 61" fill="none" xmlns="http://www.w3.org/2000/svg">
<path d="M26.3672 0.5C25.0177 0.5 23.7854 1.01041 22.8516 1.8472C21.9177 1.01041 20.6854 0.5 19.3359 0.5C16.9075 0.5 14.8581 2.1507 14.2484 4.38824C13.6464 4.14883 12.9909 4.01562 12.3047 4.01562C9.87625 4.01562 7.82684 5.66632 7.2171 7.90387C6.61514 7.66446 5.95963 7.53125 5.27344 7.53125C2.36572 7.53125 0 9.89697 0 12.8047V26.4525C0 29.2952 0.671997 32.1415 1.94321 34.6844C2.9718 36.7416 3.51562 39.0446 3.51562 41.3444V58.7422C3.51562 59.7131 4.30252 60.5 5.27344 60.5H26.3672C27.3381 60.5 28.125 59.7131 28.125 58.7422V37.9474L34.861 27.8422C35.0533 27.5534 35.1562 27.2142 35.1562 26.8672V12.8047C35.1562 11.8338 34.3694 11.0469 33.3984 11.0469H31.6406V5.77344C31.6406 2.86572 29.2749 0.5 26.3672 0.5ZM26.3672 4.01562C27.3363 4.01562 28.125 4.80435 28.125 5.77344L28.5 3.5H24.6094V5.77344C24.6094 4.80435 25.3981 4.01562 26.3672 4.01562ZM17.5781 5.77344C17.5781 4.80435 18.3669 4.01562 19.3359 4.01562C20.305 4.01562 21.0938 4.80435 21.0938 5.77344L21.5 3.5L17.5781 3C17.5781 1.34839 17.5781 7.42001 17.5781 5.77344ZM15.5312 13.5C15.5312 12.5309 14.0309 10.9106 15 10.9106C15.9691 10.9106 14.0625 8.31998 14.0625 9.28906L13.8183 15C13.8183 15.9691 13.2738 11.9106 12.3047 11.9106C11.3356 11.9106 9.3183 15.5 10.5469 16.3203C10.5469 15.4698 19.5156 17.2109 15.5312 13.5ZM8.5 13.5C9.46909 13.5 7.03125 11.8356 7.03125 12.8047L7 15.5C7 16.4691 6.24252 13.5 5.27344 13.5C4.30435 13.5 2.8183 15 3.51562 16.3203L9 16.4106C9 15.4416 7.53091 13.5 8.5 13.5ZM24.3183 37.5V37C24.126 37.2888 24.6094 37.0685 24.6094 37.4154L25.5 30.5L4.5 39L17.5781 47.9609C17.5781 46.99 16.7912 46.2031 15.8203 46.2031C14.8494 46.2031 14.0625 46.99 14.0625 47.9609V56.9844L20 33.5L9.15625 34.6844C9.15625 31.8417 6.35925 35.6553 5.08804 33.1125C4.05945 31.0553 3.51562 28.7523 3.51562 26.4525V21.2916C4.06586 21.4866 4.3183 19 3 19.8359C4.34949 19.8359 1.00937 21.8368 1.94321 21C0.3183 20.5 4.15051 39 5.5 39C7.37408 39 12.5 38.5 12.3047 37.4154C13.4738 38.5406 11.8534 36.1567 13.5 36.5C14 37 15 34.1794 15 37.5C15 38.4709 17.0291 37.5 18 37.5C18.9709 37.5 20.6562 38.0603 20.6562 37.0894C20.6562 33.4639 23.3199 23.1149 26.3864 21.7219C26.4825 21.678 26.5714 21.6258 26.6556 21.5681C27.4887 21.4303 28.125 20.7084 28.125 19.8359C28.125 18.865 27.3381 18.0781 26.3672 18.0781H22.8516C20.56 18.0781 20.7256 39.4616 20 37.4154H24.1562L24.3183 37.5Z" fill="#FAC641"/>
<path d="M31.6847 1.53338L31.8516 1.68288L32.0184 1.53338C32.9084 0.735852 34.082 0.25 35.3672 0.25C38.1368 0.25 40.3906 2.50379 40.3906 5.27344V10.5469V10.7969H40.6406H42.3984C43.2313 10.7969 43.9062 11.4718 43.9062 12.3047V26.3672C43.9062 26.6647 43.8179 26.9557 43.6529 27.2037L36.917 37.3087L36.875 37.3717V37.4474V58.2422C36.875 59.075 36.2 59.75 35.3672 59.75H14.2734C13.4406 59.75 12.7656 59.075 12.7656 58.2422V40.8444C12.7656 38.5058 12.2128 36.1645 11.1668 34.0726C9.91296 31.5645 9.25 28.7563 9.25 25.9525V12.3047C9.25 9.53504 11.5038 7.28125 14.2734 7.28125C14.927 7.28125 15.5512 7.40808 16.1247 7.63617L16.3847 7.73959L16.4583 7.4696C17.0392 5.33774 18.9922 3.76562 21.3047 3.76562C21.9582 3.76562 22.5825 3.89246 23.156 4.12055L23.416 4.22396L23.4896 3.95397C24.0705 1.82212 26.0234 0.25 28.3359 0.25C29.6212 0.25 30.7947 0.735852 31.6847 1.53338ZM37.125 10.7969H37.375V10.5469V5.27344C37.375 4.16628 36.4743 3.26562 35.3672 3.26562C34.26 3.26562 33.3594 4.16628 33.3594 5.27344V10.5469V10.7969H33.6094H37.125ZM30.0938 10.7969H30.3438V10.5469V5.27344C30.3438 4.16628 29.4431 3.26562 28.3359 3.26562C27.2288 3.26562 26.3281 4.16628 26.3281 5.27344V5.28309V5.29275V5.30241V5.31209V5.32177V5.33146V5.34116V5.35086V5.36057V5.37029V5.38001V5.38975V5.39949V5.40923V5.41899V5.42875V5.43852V5.44829V5.45807V5.46786V5.47766V5.48746V5.49727V5.50709V5.51691V5.52674V5.53658V5.54642V5.55627V5.56613V5.57599V5.58586V5.59574V5.60562V5.61551V5.62541V5.63531V5.64522V5.65514V5.66506V5.67499V5.68492V5.69487V5.70481V5.71477V5.72473V5.73469V5.74467V5.75464V5.76463V5.77462V5.78462V5.79462V5.80463V5.81464V5.82466V5.83469V5.84472V5.85476V5.8648V5.87485V5.88491V5.89497V5.90504V5.91511V5.92519V5.93527V5.94536V5.95545V5.96555V5.97566V5.98577V5.99589V6.00601V6.01614V6.02627V6.03641V6.04655V6.0567V6.06685V6.07701V6.08718V6.09735V6.10752V6.1177V6.12789V6.13807V6.14827V6.15847V6.16867V6.17888V6.1891V6.19932V6.20954V6.21977V6.23V6.24024V6.25048V6.26073V6.27098V6.28124V6.2915V6.30177V6.31204V6.32231V6.33259V6.34287V6.35316V6.36345V6.37375V6.38405V6.39436V6.40467V6.41498V6.4253V6.43562V6.44595V6.45628V6.46661V6.47695V6.48729V6.49764V6.50799V6.51835V6.5287V6.53907V6.54943V6.5598V6.57018V6.58055V6.59094V6.60132V6.61171V6.6221V6.6325V6.6429V6.6533V6.66371V6.67412V6.68453V6.69495V6.70537V6.71579V6.72622V6.73665V6.74708V6.75752V6.76796V6.7784V6.78885V6.7993V6.80975V6.82021V6.83067V6.84113V6.8516V6.86206V6.87254V6.88301V6.89349V6.90397V6.91445V6.92493V6.93542V6.94591V6.95641V6.9669V6.9774V6.9879V6.99841V7.00891V7.01942V7.02994V7.04045V7.05097V7.06149V7.07201V7.08253V7.09306V7.10359V7.11412V7.12465V7.13518V7.14572V7.15626V7.1668V7.17735V7.18789V7.19844V7.20899V7.21954V7.2301V7.24065V7.25121V7.26177V7.27233V7.28289V7.29346V7.30402V7.31459V7.32516V7.33573V7.34631V7.35688V7.36746V7.37804V7.38862V7.3992V7.40978V7.42036V7.43095V7.44154V7.45213V7.46271V7.47331V7.4839V7.49449V7.50508V7.51568V7.52628V7.53687V7.54747V7.55807V7.56867V7.57928V7.58988V7.60048V7.61109V7.62169V7.6323V7.64291V7.65351V7.66412V7.67473V7.68534V7.69595V7.70657V7.71718V7.72779V7.7384V7.74902V7.75963V7.77025V7.78086V7.79148V7.80209V7.81271V7.82333V7.83394V7.84456V7.85518V7.8658V7.87641V7.88703V7.89765V7.90827V7.91889V7.9295V7.94012V7.95074V7.96136V7.97198V7.98259V7.99321V8.00383V8.01445V8.02507V8.03568V8.0463V8.05692V8.06753V8.07815V8.08876V8.09938V8.10999V8.1206V8.13122V8.14183V8.15244V8.16305V8.17367V8.18427V8.19488V8.20549V8.2161V8.22671V8.23732V8.24792V8.25852V8.26913V8.27973V8.29033V8.30093V8.31153V8.32213V8.33273V8.34333V8.35392V8.36452V8.37511V8.3857V8.39629V8.40688V8.41747V8.42806V8.43864V8.44923V8.45981V8.47039V8.48097V8.49155V8.50212V8.5127V8.52327V8.53384V8.54441V8.55498V8.56555V8.57611V8.58668V8.59724V8.6078V8.61835V8.62891V8.63946V8.65002V8.66057V8.67111V8.68166V8.6922V8.70274V8.71328V8.72382V8.73436V8.74489V8.75542V8.76595V8.77647V8.787V8.79752V8.80804V8.81855V8.82907V8.83958V8.85009V8.8606V8.8711V8.8816V8.8921V8.9026V8.91309V8.92358V8.93407V8.94455V8.95504V8.96552V8.97599V8.98647V8.99694V9.00741V9.01787V9.02833V9.03879V9.04925V9.0597V9.07015V9.0806V9.09104V9.10148V9.11192V9.12235V9.13278V9.14321V9.15363V9.16405V9.17447V9.18488V9.19529V9.2057V9.2161V9.2265V9.2369V9.24729V9.25768V9.26806V9.27844V9.28882V9.29919V9.30956V9.31993V9.33029V9.34065V9.351V9.36135V9.3717V9.38204V9.39238V9.40272V9.41305V9.42337V9.4337V9.44401V9.45433V9.46464V9.47494V9.48524V9.49554V9.50583V9.51612V9.5264V9.53668V9.54696V9.55723V9.56749V9.57775V9.58801V9.59826V9.60851V9.61875V9.62899V9.63922V9.64945V9.65967V9.66989V9.68011V9.69032V9.70052V9.71072V9.72091V9.7311V9.74129V9.75147V9.76164V9.77181V9.78197V9.79213V9.80229V9.81243V9.82258V9.83272V9.84285V9.85297V9.8631V9.87321V9.88332V9.89343V9.90353V9.91362V9.92371V9.9338V9.94387V9.95395V9.96401V9.97407V9.98413V9.99418V10.0042V10.0143V10.0243V10.0343V10.0443V10.0544V10.0644V10.0744V10.0844V10.0943V10.1043V10.1143V10.1243V10.1343V10.1442V10.1542V10.1641V10.1741V10.184V10.1939V10.2038V10.2138V10.2237V10.2336V10.2435V10.2534V10.2632V10.2731V10.283V10.2928V10.3027V10.3126V10.3224V10.3322V10.3421V10.3519V10.3617V10.3715V10.3813V10.3911V10.4009V10.4107V10.4205V10.4302V10.44V10.4497V10.4595V10.4692V10.479V10.4887V10.4984V10.5081V10.5178V10.5275V10.5372V10.5469V10.7969H26.5781H30.0938ZM40.8486 25.9739L40.8906 25.911V25.8353V14.0625V13.8125H40.6406H26.8793H26.5254L26.6437 14.146C27.4034 16.2886 29.4506 17.8281 31.8516 17.8281H35.3672C36.2 17.8281 36.875 18.5031 36.875 19.3359C36.875 20.0836 36.3297 20.7032 35.6148 20.8215L35.5601 20.8305L35.5143 20.8618C35.4397 20.9129 35.3634 20.9575 35.2825 20.9945C32.1186 22.432 29.8438 26.169 29.8438 29.8828C29.8438 30.7157 29.1688 31.3906 28.3359 31.3906C27.5031 31.3906 26.8281 30.7157 26.8281 29.8828C26.8281 26.6268 28.129 23.4267 30.2408 21.0754L30.531 20.7523L30.1059 20.6636C28.5069 20.3302 27.0717 19.5468 25.9353 18.4531L25.7146 18.2408L25.5507 18.4995C24.6587 19.9077 23.0891 20.8438 21.3047 20.8438C20.0194 20.8438 18.8459 20.3583 17.956 19.5604L17.7891 19.4108L17.6222 19.5604C16.7322 20.3579 15.5587 20.8438 14.2734 20.8438C13.6865 20.8438 13.1232 20.7417 12.5991 20.556L12.2656 20.4378V20.7916V25.9525C12.2656 28.2911 12.8185 30.6324 13.8644 32.7242C15.1183 35.2324 15.7812 38.0405 15.7812 40.8444V56.4844V56.7344H16.0312H23.0625H23.3125V56.4844V47.4609C23.3125 46.6281 23.9875 45.9531 24.8203 45.9531C25.6532 45.9531 26.3281 46.6281 26.3281 47.4609V56.4844V56.7344H26.5781H33.6094H33.8594V56.4844V36.9154C33.8594 36.618 33.9477 36.3269 34.1127 36.0789L40.8486 25.9739ZM21.3047 6.78125C20.1975 6.78125 19.2969 7.68191 19.2969 8.78906V8.79413V8.7993V8.80458V8.80995V8.81542V8.821V8.82667V8.83245V8.83832V8.84429V8.85036V8.85653V8.8628V8.86916V8.87562V8.88217V8.88882V8.89557V8.90241V8.90935V8.91638V8.9235V8.93072V8.93803V8.94544V8.95293V8.96052V8.9682V8.97597V8.98383V8.99178V8.99983V9.00796V9.01618V9.02448V9.03288V9.04137V9.04994V9.0586V9.06734V9.07617V9.08509V9.0941V9.10318V9.11236V9.12162V9.13096V9.14038V9.14989V9.15948V9.16915V9.17891V9.18874V9.19866V9.20866V9.21874V9.22889V9.23913V9.24945V9.25984V9.27032V9.28087V9.2915V9.3022V9.31299V9.32385V9.33478V9.34579V9.35688V9.36804V9.37927V9.39058V9.40196V9.41341V9.42494V9.43654V9.44821V9.45996V9.47177V9.48366V9.49561V9.50764V9.51973V9.53189V9.54413V9.55643V9.5688V9.58123V9.59373V9.6063V9.61894V9.63164V9.64441V9.65724V9.67014V9.6831V9.69613V9.70921V9.72237V9.73558V9.74886V9.7622V9.7756V9.78906V9.80258V9.81616V9.8298V9.84351V9.85727V9.87109V9.88496V9.8989V9.91289V9.92694V9.94105V9.95521V9.96943V9.98371V9.99804V10.0124V10.0269V10.0414V10.0559V10.0705V10.0851V10.0999V10.1146V10.1294V10.1443V10.1592V10.1741V10.1892V10.2042V10.2193V10.2345V10.2497V10.2649V10.2802V10.2956V10.311V10.3264V10.3419V10.3574V10.373V10.3886V10.4043V10.42V10.4358V10.4516V10.4674V10.4833V10.4992V10.5152V10.5312V10.5472V10.5633V10.5794V10.5956V10.6118V10.6281V10.6443V10.6607V10.677V10.6934V10.7098V10.7263V10.7428V10.7594V10.7759V10.7925V10.8092V10.8259V10.8426V10.8593V10.8761V10.8929V10.9097V10.9266V10.9435V10.9605V10.9774V10.9944V11.0114V11.0285V11.0456V11.0627V11.0798V11.097V11.1142V11.1314V11.1486V11.1659V11.1832V11.2005V11.2179V11.2353V11.2526V11.2701V11.2875V11.305V11.3225V11.34V11.3575V11.3751V11.3926V11.4102V11.4278V11.4455V11.4631V11.4808V11.4985V11.5162V11.5339V11.5516V11.5694V11.5872V11.605V11.6228V11.6406V11.6584V11.6763V11.6941V11.712V11.7299V11.7478V11.7657V11.7836V11.8016V11.8195V11.8375V11.8555V11.8734V11.8914V11.9094V11.9274V11.9455V11.9635V11.9815V11.9996V12.0176V12.0357V12.0537V12.0718V12.0898V12.1079V12.126V12.1441V12.1622V12.1802V12.1983V12.2164V12.2345V12.2526V12.2707V12.2888V12.3069V12.325V12.3431V12.3612V12.3793V12.3974V12.4155V12.4336V12.4517V12.4698V12.4878V12.5059V12.524V12.5421V12.5601V12.5782V12.5962V12.6143V12.6323V12.6503V12.6684V12.6864V12.7044V12.7224V12.7404V12.7583V12.7763V12.7943V12.8122V12.8301V12.8481V12.866V12.8839V12.9018V12.9196V12.9375V12.9553V12.9732V12.991V13.0088V13.0266V13.0443V13.0621V13.0798V13.0975V13.1152V13.1329V13.1506V13.1682V13.1858V13.2035V13.221V13.2386V13.2561V13.2737V13.2912V13.3087V13.3261V13.3435V13.361V13.3783V13.3957V13.413V13.4304V13.4476V13.4649V13.4821V13.4994V13.5165V13.5337V13.5508V13.5679V13.585V13.602V13.6191V13.636V13.653V13.6699V13.6868V13.7037V13.7205V13.7373V13.7541V13.7708V13.7875V13.8042V13.8208V13.8374V13.854V13.8705V13.887V13.9034V13.9199V13.9362V13.9526V13.9689V13.9852V14.0014V14.0176V14.0337V14.0498V14.0659V14.082V14.0979V14.1139V14.1298V14.1457V14.1615V14.1773V14.193V14.2087V14.2244V14.24V14.2555V14.271V14.2865V14.3019V14.3173V14.3327V14.3479V14.3632V14.3784V14.3935V14.4086V14.4236V14.4386V14.4536V14.4685V14.4833V14.4981V14.5128V14.5275V14.5422V14.5567V14.5713V14.5857V14.6002V14.6145V14.6288V14.6431V14.6573V14.6714V14.6855V14.6996V14.7135V14.7274V14.7413V14.7551V14.7688V14.7825V14.7961V14.8097V14.8232V14.8366V14.85V14.8633V14.8766V14.8898V14.9029V14.916V14.929V14.9419V14.9548V14.9676V14.9804V14.993V15.0057V15.0182V15.0307V15.0431V15.0554V15.0677V15.0799V15.0921V15.1041V15.1161V15.1281V15.1399V15.1517V15.1634V15.1751V15.1867V15.1982V15.2096V15.221V15.2322V15.2434V15.2546V15.2656V15.2766V15.2875V15.2984V15.3091V15.3198V15.3304V15.3409V15.3514V15.3617V15.372V15.3822V15.3924V15.4024V15.4124V15.4223V15.4321V15.4418V15.4515V15.461V15.4705V15.4799V15.4892V15.4984V15.5076V15.5167V15.5256V15.5345V15.5433V15.552V15.5607V15.5692V15.5777V15.586V15.5943V15.6025V15.6106V15.6186V15.6265V15.6344V15.6421V15.6497V15.6573V15.6648V15.6721V15.6794V15.6866V15.6937V15.7007V15.7076V15.7144V15.7211V15.7277V15.7343V15.7407V15.747V15.7533V15.7594V15.7654V15.7714V15.7772V15.7829V15.7886V15.7941V15.7996V15.8049V15.8101V15.8153V15.8203C19.2969 16.9275 20.1975 17.8281 21.3047 17.8281C22.4118 17.8281 23.3125 16.9275 23.3125 15.8203V8.78906C23.3125 7.68191 22.4118 6.78125 21.3047 6.78125ZM16.2812 12.3047C16.2812 11.1975 15.3806 10.2969 14.2734 10.2969C13.1663 10.2969 12.2656 11.1975 12.2656 12.3047V15.8203C12.2656 16.9275 13.1663 17.8281 14.2734 17.8281C15.3806 17.8281 16.2812 16.9275 16.2812 15.8203V12.3047Z" fill="#151515" stroke="white" stroke-width="0.5"/>
</svg>
