<svg width="41" height="60" viewBox="0 0 41 60" fill="none" xmlns="http://www.w3.org/2000/svg">
<rect y="9" width="33" height="40" fill="#FAC641"/>
<path d="M38 0H8C6.3432 0 5 1.34309 5 3V57C5 58.6568 6.34309 60 8 60H38C39.6568 60 41 58.6569 41 57V3C41 1.34309 39.6568 0 38 0ZM39 8.00004H16C15.4477 8.00004 15.0001 8.4477 15.0001 9C15.0001 9.55231 15.4477 9.99996 16 9.99996H39.0001V49H36.0001C35.4478 49 35.0001 49.4476 35.0001 49.9999C35.0001 50.5522 35.4478 50.9999 36.0001 50.9999H39.0001V56.9999C39.0001 57.5522 38.5524 57.9998 38.0001 57.9998H8C7.4477 57.9998 7.00004 57.5522 7.00004 56.9999V50.9999H30.0001C30.5524 50.9999 31 50.5522 31 49.9999C31 49.4476 30.5524 49 30.0001 49H7.00004V9.99996H10C10.5523 9.99996 11 9.55231 11 9C11 8.4477 10.5523 8.00004 10 8.00004H7.00004V3C7.00004 2.4477 7.4477 2.00004 8 2.00004H38C38.5523 2.00004 39 2.4477 39 3V8.00004Z" fill="#151515"/>
<path d="M23.9998 54H21.9997C21.4474 54 20.9998 54.4477 20.9998 55C20.9998 55.5523 21.4474 55.9999 21.9997 55.9999H23.9998C24.5521 55.9999 24.9997 55.5523 24.9997 55C24.9997 54.4477 24.5521 54 23.9998 54Z" fill="#151515"/>
</svg>
