<svg width="54" height="33" viewBox="0 0 54 33" fill="none" xmlns="http://www.w3.org/2000/svg">
<rect y="1" width="48" height="31" rx="4" fill="#FAC641"/>
<path d="M53.9991 4.15221C53.9991 3.08483 53.5775 2.11916 52.9049 1.3829C52.8937 1.36828 52.8912 1.35104 52.8791 1.33633C52.8679 1.32342 52.8524 1.3182 52.8403 1.30619C52.0755 0.506037 50.9978 0 49.7976 0H8.20229C7.00215 0 5.92439 0.506037 5.1579 1.30619C5.14671 1.3182 5.13029 1.32342 5.1191 1.33723C5.10701 1.35104 5.10447 1.36909 5.09328 1.3838C4.42164 2.12006 4 3.08483 4 4.15221V28.6245C4 29.7178 4.43888 30.7066 5.14067 31.449C5.15447 31.4645 5.1588 31.4835 5.17433 31.4982C5.17947 31.5034 5.18552 31.5042 5.19075 31.5094C5.95552 32.2889 7.02029 32.7769 8.20238 32.7769H49.7977C50.9798 32.7769 52.0455 32.2881 52.8093 31.5087C52.8145 31.5043 52.8205 31.5026 52.8257 31.4983C52.8404 31.4845 52.8446 31.4655 52.8584 31.4508C53.5611 30.7085 54 29.7187 54 28.6246V4.15221H53.9991ZM37.634 15.0951L52.0428 3.14774C52.1842 3.45468 52.2678 3.79348 52.2678 4.15213V28.6244C52.2678 28.9487 52.2006 29.2564 52.0842 29.5401L37.634 15.0951ZM49.7976 1.71133C50.1606 1.71133 50.5029 1.79409 50.8141 1.93379L29 20.0199L7.18581 1.93379C7.49708 1.79417 7.83939 1.71133 8.20229 1.71133H49.7976ZM5.91582 29.5393C5.7994 29.2566 5.73216 28.9479 5.73216 28.6237V4.15221C5.73216 3.79356 5.81582 3.45468 5.95715 3.14782L20.366 15.0952L5.91582 29.5393ZM8.20229 31.0646C7.8023 31.0646 7.42976 30.961 7.09529 30.7939L21.6972 16.1979L28.4438 21.7918C28.6042 21.9255 28.8025 21.9927 29 21.9927C29.1974 21.9927 29.3957 21.9255 29.5561 21.7918L36.3027 16.1979L50.9046 30.7939C50.5701 30.9611 50.1977 31.0646 49.7975 31.0646H8.20229Z" fill="#151515"/>
</svg>
