<svg width="56" height="50" viewBox="0 0 56 50" fill="none" xmlns="http://www.w3.org/2000/svg">
<path d="M49.9762 39.434C50.0821 40.2457 49.8348 40.9514 49.2351 41.5512L42.1952 48.5379C41.8776 48.8908 41.4631 49.191 40.9514 49.4378C40.4398 49.6849 39.937 49.8437 39.4431 49.9142C39.4079 49.9142 39.3017 49.9232 39.1252 49.9409C38.949 49.9584 38.7197 49.9674 38.4374 49.9674C37.7667 49.9674 36.6815 49.8527 35.1818 49.6233C33.6821 49.3938 31.8472 48.8291 29.6772 47.9295C27.5067 47.0296 25.0454 45.6797 22.2931 43.8802C19.5407 42.0808 16.6118 39.6105 13.5064 36.4698C11.0363 34.035 8.98962 31.706 7.36639 29.4829C5.74315 27.2597 4.43751 25.2042 3.44946 23.3163C2.46131 21.4284 1.72027 19.717 1.22625 18.182C0.732219 16.647 0.396986 15.3237 0.220548 14.2121C0.0441096 13.1005 -0.0264658 12.2272 0.00882192 11.592C0.0441096 10.9568 0.0617534 10.6039 0.0617534 10.5334C0.132329 10.0393 0.291123 9.53649 0.538137 9.02482C0.785151 8.51315 1.0851 8.09852 1.43797 7.78093L8.47786 0.741041C8.97189 0.247014 9.53649 0 10.1717 0C10.6304 0 11.0362 0.132329 11.3891 0.396986C11.742 0.661644 12.0419 0.988055 12.2889 1.37622L17.9526 12.1213C18.2702 12.6859 18.3584 13.3035 18.2173 13.9739C18.0761 14.6444 17.7762 15.209 17.3174 15.6677L14.7238 18.2614C14.6532 18.3319 14.5915 18.4466 14.5385 18.6054C14.4856 18.7642 14.4591 18.8965 14.4591 19.0024C14.6003 19.7435 14.9179 20.5904 15.4119 21.5431C15.8353 22.39 16.4882 23.4222 17.3704 24.6396C18.2525 25.857 19.5053 27.2596 21.1285 28.8476C22.7164 30.471 24.1279 31.7324 25.363 32.6324C26.5978 33.5319 27.6303 34.1938 28.4596 34.6172C29.2889 35.0407 29.924 35.2965 30.365 35.3845L31.0265 35.5169C31.0971 35.5169 31.212 35.4903 31.3707 35.4375C31.5294 35.3845 31.6441 35.3228 31.7148 35.2521L34.7318 32.1821C35.3673 31.6176 36.108 31.3353 36.955 31.3353C37.5551 31.3353 38.0312 31.4411 38.3841 31.6529H38.4369L48.6526 37.6871C49.3939 38.1461 49.8349 38.7282 49.9762 39.434Z" fill="#FAC641"/>
<path d="M47.4908 47.8282L47.4708 47.848L47.4519 47.869C47.2363 48.1086 46.9337 48.3361 46.517 48.537L46.5166 48.5373C46.1013 48.7378 45.7114 48.8606 45.345 48.9177C45.2505 48.9235 45.1324 48.9352 45.026 48.9458C44.8957 48.9588 44.7027 48.9674 44.4374 48.9674C43.8491 48.9674 42.8291 48.8637 41.333 48.6348C39.9438 48.4222 38.1917 47.8894 36.0602 47.0057L35.6772 47.9295L36.0602 47.0057C33.9646 46.137 31.5596 44.8212 28.8403 43.0432L28.2931 43.8802L28.8403 43.0432C26.1634 41.2931 23.2889 38.8731 20.2175 35.7667L20.2176 35.7667L20.2084 35.7576C17.7674 33.3514 15.7585 31.0632 14.174 28.8932C12.572 26.6991 11.295 24.6861 10.3354 22.8526L10.3354 22.8526C9.36586 21.0002 8.65021 19.3423 8.17816 17.8756C7.69374 16.3705 7.37395 15.0997 7.20818 14.0553C7.03578 12.9692 6.97784 12.1775 7.00728 11.6475C7.035 11.1486 7.05372 10.7939 7.05969 10.6219C7.1176 10.258 7.23995 9.87124 7.43869 9.45957C7.64013 9.04229 7.86754 8.73968 8.10694 8.52423L8.12648 8.50663L8.14508 8.48804L15.185 1.44815C15.5121 1.12106 15.8295 1 16.1717 1C16.4233 1 16.6166 1.06761 16.7891 1.19699C17.0321 1.37928 17.244 1.60486 17.4247 1.88119L23.068 12.5876L23.0743 12.5997L23.081 12.6116C23.2724 12.9518 23.333 13.3199 23.2387 13.7679C23.1352 14.2597 22.924 14.6469 22.6103 14.9606L20.0167 17.5543C19.7859 17.785 19.6628 18.0704 19.5898 18.2892L20.5385 18.6054L19.5898 18.2892C19.5203 18.4979 19.4591 18.7453 19.4591 19.0024V19.0968L19.4768 19.1895C19.6416 20.0546 20.0011 20.9937 20.5207 21.9969C20.9784 22.9109 21.6648 23.9902 22.5606 25.2264C23.4866 26.5043 24.7796 27.9482 26.4213 29.5547C28.0284 31.1971 29.4803 32.4977 30.7741 33.4405L30.7742 33.4406C32.0282 34.3541 33.1087 35.0502 34.0048 35.5078C34.8479 35.9383 35.5857 36.2487 36.1694 36.3651L36.8302 36.4974L36.9274 36.5169H37.0265C37.2755 36.5169 37.528 36.4391 37.6867 36.3862L37.6873 36.386C37.9055 36.3132 38.1909 36.1902 38.4219 35.9593L38.4219 35.9593L38.428 35.953L41.4195 32.909C41.8668 32.5204 42.3644 32.3353 42.955 32.3353C43.4518 32.3353 43.7275 32.4251 43.8694 32.5103L44.107 32.6529H44.1636L54.1344 38.5424C54.6723 38.8777 54.9069 39.2332 54.9888 39.5981C55.0422 40.0724 54.9088 40.4626 54.5294 40.8427C54.5289 40.8432 54.5284 40.8437 54.5279 40.8442L47.4908 47.8282Z" stroke="#151515" stroke-width="2"/>
</svg>
