<svg width="18" height="30" viewBox="0 0 18 30" fill="none" xmlns="http://www.w3.org/2000/svg">
<path d="M13.3945 0C12.7198 0 12.1036 0.255203 11.6367 0.673599C11.1698 0.255203 10.5536 0 9.87891 0C8.66469 0 7.63998 0.825348 7.33511 1.94412C7.03413 1.82442 6.70638 1.75781 6.36328 1.75781C5.14906 1.75781 4.12436 2.58316 3.81949 3.70193C3.51851 3.58223 3.19075 3.51562 2.84766 3.51562C1.3938 3.51562 0.210938 4.69849 0.210938 6.15234V12.9762C0.210938 14.3976 0.546936 15.8208 1.18254 17.0922C1.69684 18.1208 1.96875 19.2723 1.96875 20.4222V29.1211C1.96875 29.6066 2.3622 30 2.84766 30H13.3945C13.88 30 14.2734 29.6066 14.2734 29.1211V18.7237L17.6414 13.6711C17.7376 13.5267 17.7891 13.3571 17.7891 13.1836V6.15234C17.7891 5.66689 17.3956 5.27344 16.9102 5.27344H16.0312V2.63672C16.0312 1.18286 14.8484 0 13.3945 0V0ZM13.3945 1.75781C13.8791 1.75781 14.2734 2.15218 14.2734 2.63672V5.27344H12.5156V2.63672C12.5156 2.15218 12.91 1.75781 13.3945 1.75781ZM9 2.63672C9 2.15218 9.39436 1.75781 9.87891 1.75781C10.3634 1.75781 10.7578 2.15218 10.7578 2.63672V5.27344H9C9 4.44763 9 3.46001 9 2.63672ZM5.48438 4.39453C5.48438 3.90999 5.87874 3.51562 6.36328 3.51562C6.84782 3.51562 7.24219 3.90999 7.24219 4.39453V7.91016C7.24219 8.3947 6.84782 8.78906 6.36328 8.78906C5.87874 8.78906 5.48438 8.3947 5.48438 7.91016C5.48438 7.48489 5.48438 4.82277 5.48438 4.39453ZM2.84766 5.27344C3.3322 5.27344 3.72656 5.6678 3.72656 6.15234V7.91016C3.72656 8.3947 3.3322 8.78906 2.84766 8.78906C2.36311 8.78906 1.96875 8.3947 1.96875 7.91016V6.15234C1.96875 5.6678 2.36311 5.27344 2.84766 5.27344ZM16.0312 12.9176L12.6633 17.9702C12.5671 18.1146 12.5156 18.2842 12.5156 18.4577V28.2422H9V23.7305C9 23.245 8.60655 22.8516 8.12109 22.8516C7.63564 22.8516 7.24219 23.245 7.24219 23.7305V28.2422H3.72656V20.4222C3.72656 19.0009 3.39056 17.5777 2.75496 16.3062C2.24066 15.2776 1.96875 14.1261 1.96875 12.9762V10.3958C2.24387 10.4933 2.53958 10.5469 2.84766 10.5469C3.5224 10.5469 4.13855 10.2917 4.60547 9.87328C5.07239 10.2919 5.68854 10.5469 6.36328 10.5469C7.30032 10.5469 8.12407 10.0552 8.5919 9.31664C9.17647 9.87923 9.91507 10.2825 10.7384 10.4542C9.66284 11.6517 9 13.2811 9 14.9414C9 15.4269 9.39345 15.8203 9.87891 15.8203C10.3644 15.8203 10.7578 15.4269 10.7578 14.9414C10.7578 13.1287 11.8709 11.3074 13.4041 10.611C13.4522 10.589 13.4966 10.5629 13.5387 10.5341C13.9553 10.4652 14.2734 10.1042 14.2734 9.66797C14.2734 9.18251 13.88 8.78906 13.3945 8.78906H11.6367C10.4909 8.78906 9.51338 8.05435 9.1506 7.03125H16.0312V12.9176Z" fill="#FAC641"/>
</svg>
