<svg width="28" height="30" viewBox="0 0 28 30" fill="none" xmlns="http://www.w3.org/2000/svg">
<path d="M15.0537 15.2765L8.58173 10.595C8.38373 10.4525 8.10923 10.4735 7.93523 10.647C7.76123 10.821 7.73973 11.095 7.88323 11.2935L12.5657 17.7665C12.8727 18.189 13.3472 18.4545 13.8677 18.495C13.9147 18.4985 13.9612 18.5 14.0072 18.5C14.4782 18.5 14.9312 18.314 15.2667 17.978C15.6352 17.6095 15.8237 17.1 15.7832 16.5795C15.7427 16.059 15.4772 15.5845 15.0537 15.2765ZM14.5597 17.271C14.3977 17.4325 14.1722 17.515 13.9457 17.4975C13.7177 17.48 13.5092 17.363 13.3752 17.179L10.5187 13.2305L14.4662 16.086C14.6517 16.221 14.7682 16.4295 14.7862 16.658C14.8042 16.8855 14.7212 17.1095 14.5597 17.271Z" fill="#FAC641"/>
<path d="M26.829 13.011C26.8285 13.0095 26.829 13.0075 26.8285 13.006C26.828 13.004 26.8265 13.0025 26.826 13.0005C26.52 11.861 26.067 10.782 25.491 9.782C25.486 9.7715 25.486 9.7605 25.48 9.75C25.474 9.74 25.4645 9.7345 25.458 9.725C24.9525 8.8575 24.3545 8.0515 23.675 7.3205L24.7485 6.247L25.456 6.954L27.577 4.833L25.456 2.7115L23.3345 4.833L24.0415 5.54L22.968 6.6135C22.237 5.9345 21.431 5.336 20.5635 4.8305C20.554 4.824 20.5485 4.8145 20.5385 4.8085C20.5285 4.8025 20.5165 4.803 20.5065 4.7975C19.5065 4.221 18.4275 3.7685 17.2885 3.4625C17.2865 3.462 17.285 3.4605 17.283 3.46C17.281 3.4595 17.2795 3.46 17.278 3.46C16.632 3.287 15.968 3.161 15.2885 3.0855V2.5H16.0385C16.728 2.5 17.2885 1.9395 17.2885 1.25C17.2885 0.5605 16.728 0 16.0385 0H11.5385C10.849 0 10.2885 0.5605 10.2885 1.25C10.2885 1.9395 10.849 2.5 11.5385 2.5H12.2885V3.0855C11.609 3.161 10.945 3.287 10.2995 3.46C10.2975 3.4605 10.296 3.46 10.2945 3.4605C10.2925 3.461 10.291 3.4625 10.289 3.463C9.15 3.769 8.071 4.222 7.071 4.798C7.0605 4.803 7.049 4.803 7.0385 4.809C7.0285 4.815 7.023 4.8245 7.0135 4.831C6.1465 5.3365 5.34 5.9345 4.609 6.614L3.5355 5.54L4.2425 4.833L2.121 2.7115L0 4.833L2.121 6.954L2.8285 6.247L3.902 7.3205C3.223 8.0515 2.6245 8.8575 2.1195 9.725C2.113 9.7345 2.103 9.74 2.0975 9.75C2.0915 9.7605 2.092 9.7715 2.0865 9.782C1.51 10.782 1.0575 11.861 0.7515 13.0005C0.751 13.0025 0.7495 13.004 0.749 13.006C0.7485 13.0075 0.749 13.0095 0.7485 13.011C0.45 14.125 0.2885 15.2935 0.2885 16.5C0.2885 17.7065 0.45 18.875 0.748 19.989C0.7485 19.991 0.748 19.9925 0.7485 19.994C0.749 19.9965 0.751 19.9985 0.7515 20.001C1.0575 21.14 1.51 22.2185 2.086 23.218C2.091 23.2285 2.091 23.2395 2.097 23.25C2.1055 23.2645 2.1175 23.2755 2.127 23.289C2.7095 24.2855 3.4135 25.2025 4.2225 26.016C4.2305 26.0255 4.2335 26.037 4.2425 26.046C4.2515 26.055 4.263 26.058 4.2725 26.066C5.0895 26.879 6.0115 27.5855 7.0135 28.1695C7.023 28.176 7.0285 28.1855 7.0385 28.1915C7.0535 28.2 7.07 28.204 7.0855 28.211C8.081 28.783 9.1555 29.233 10.289 29.5375C10.291 29.538 10.2925 29.5395 10.2945 29.54C10.297 29.5405 10.2995 29.5405 10.302 29.541C11.415 29.839 12.583 30 13.7885 30C14.994 30 16.162 29.839 17.275 29.541C17.2775 29.5405 17.28 29.541 17.2825 29.54C17.2845 29.5395 17.286 29.538 17.288 29.5375C18.4215 29.233 19.4955 28.783 20.4915 28.211C20.507 28.204 20.5235 28.2005 20.5385 28.1915C20.5485 28.1855 20.554 28.176 20.5635 28.1695C21.5655 27.5855 22.487 26.879 23.3045 26.066C23.314 26.058 23.3255 26.055 23.3345 26.046C23.3435 26.037 23.3465 26.025 23.3545 26.016C24.1635 25.2025 24.8675 24.2855 25.45 23.289C25.4595 23.2755 25.4715 23.265 25.48 23.25C25.486 23.2395 25.4855 23.2285 25.491 23.218C26.067 22.2185 26.5195 21.14 26.8255 20.001C26.826 19.9985 26.828 19.9965 26.8285 19.994C26.829 19.9925 26.8285 19.9905 26.829 19.989C27.127 18.875 27.2885 17.7065 27.2885 16.5C27.2885 15.2935 27.127 14.125 26.829 13.011ZM25.456 4.1255L26.163 4.833L25.456 5.54L24.7485 4.833L25.456 4.1255ZM1.414 4.833L2.121 4.1255L2.8285 4.833L2.121 5.54L1.414 4.833ZM24.767 19.9595L25.7245 20.216C25.497 20.945 25.202 21.6445 24.851 22.31L23.9975 21.817C23.7585 21.6785 23.4525 21.76 23.3145 22C23.1765 22.2395 23.2585 22.545 23.4975 22.683L24.349 23.1745C23.9425 23.8155 23.481 24.4175 22.968 24.9725L22.2735 24.278C22.078 24.0825 21.762 24.0825 21.5665 24.278C21.371 24.4735 21.371 24.7895 21.5665 24.985L22.261 25.6795C21.706 26.1925 21.104 26.654 20.463 27.0605L19.9715 26.209C19.833 25.969 19.5265 25.887 19.2885 26.026C19.049 26.164 18.967 26.47 19.1055 26.709L19.5985 27.5625C18.933 27.9135 18.234 28.2085 17.5045 28.436L17.248 27.479C17.1765 27.212 16.9025 27.053 16.6355 27.1255C16.369 27.197 16.2105 27.471 16.282 27.738L16.5375 28.692C15.8095 28.856 15.058 28.957 14.2885 28.9875V28C14.2885 27.7235 14.065 27.5 13.7885 27.5C13.512 27.5 13.2885 27.7235 13.2885 28V28.9875C12.519 28.957 11.7675 28.856 11.0395 28.692L11.295 27.738C11.3665 27.4715 11.208 27.197 10.9415 27.1255C10.675 27.0535 10.4005 27.212 10.329 27.479L10.0725 28.436C9.3435 28.2085 8.644 27.9135 7.9785 27.5625L8.4715 26.709C8.6095 26.4695 8.5275 26.164 8.2885 26.026C8.0495 25.8875 7.7435 25.969 7.6055 26.209L7.114 27.0605C6.473 26.654 5.871 26.1925 5.316 25.6795L6.0105 24.985C6.206 24.7895 6.206 24.4735 6.0105 24.278C5.815 24.0825 5.499 24.0825 5.3035 24.278L4.609 24.9725C4.096 24.4175 3.6345 23.8155 3.228 23.1745L4.0795 22.683C4.319 22.545 4.401 22.239 4.2625 22C4.124 21.76 3.8175 21.678 3.5795 21.817L2.726 22.31C2.375 21.6445 2.08 20.9455 1.8525 20.216L2.81 19.9595C3.0765 19.888 3.235 19.614 3.1635 19.347C3.0925 19.08 2.8185 18.921 2.551 18.9935L1.5965 19.249C1.433 18.521 1.3315 17.7695 1.301 17H2.2885C2.565 17 2.7885 16.7765 2.7885 16.5C2.7885 16.2235 2.565 16 2.2885 16H1.301C1.3315 15.2305 1.4325 14.479 1.5965 13.751L2.551 14.007C2.5945 14.0185 2.638 14.024 2.681 14.024C2.9015 14.024 3.1035 13.877 3.1635 13.6535C3.2355 13.387 3.0765 13.1125 2.81 13.041L1.8525 12.784C2.08 12.055 2.375 11.3555 2.726 10.69L3.5795 11.183C3.6575 11.2285 3.7435 11.25 3.8285 11.25C4.0015 11.25 4.1695 11.1605 4.262 11C4.4 10.7605 4.318 10.455 4.079 10.317L3.2275 9.8255C3.634 9.1845 4.0955 8.5825 4.6085 8.0275L5.303 8.722C5.4005 8.8195 5.5285 8.8685 5.6565 8.8685C5.7845 8.8685 5.9125 8.8195 6.01 8.722C6.2055 8.5265 6.2055 8.2105 6.01 8.015L5.3155 7.3205C5.8705 6.808 6.4725 6.346 7.1135 5.9395L7.605 6.7915C7.698 6.9515 7.8655 7.0415 8.0385 7.0415C8.1235 7.0415 8.2095 7.02 8.288 6.9745C8.5275 6.8365 8.6095 6.5305 8.471 6.2915L7.978 5.4375C8.6435 5.0865 9.3425 4.7915 10.072 4.564L10.3285 5.5215C10.388 5.7445 10.59 5.892 10.811 5.892C10.854 5.892 10.8975 5.8865 10.941 5.875C11.2075 5.8035 11.366 5.5295 11.2945 5.2625L11.039 4.308C11.625 4.176 12.2255 4.0855 12.839 4.0395C12.994 4.028 13.134 4.0195 13.2695 4.013C13.276 4.013 13.282 4.013 13.2885 4.0125V5C13.2885 5.2765 13.512 5.5 13.7885 5.5C14.065 5.5 14.2885 5.2765 14.2885 5V4.0125C14.295 4.0125 14.301 4.0125 14.3075 4.013C14.443 4.0195 14.5825 4.028 14.738 4.0395C15.3515 4.086 15.9525 4.176 16.538 4.308L16.2825 5.2625C16.211 5.529 16.3695 5.8035 16.636 5.875C16.6795 5.8865 16.723 5.892 16.766 5.892C16.9865 5.892 17.189 5.7445 17.2485 5.5215L17.505 4.564C18.234 4.7915 18.9335 5.0865 19.599 5.4375L19.106 6.2915C18.968 6.531 19.05 6.8365 19.289 6.9745C19.3675 7.02 19.4535 7.0415 19.5385 7.0415C19.7115 7.0415 19.8795 6.9515 19.972 6.7915L20.4635 5.9395C21.1045 6.346 21.7065 6.808 22.2615 7.3205L21.567 8.015C21.3715 8.2105 21.3715 8.5265 21.567 8.722C21.6645 8.8195 21.7925 8.8685 21.9205 8.8685C22.0485 8.8685 22.1765 8.8195 22.274 8.722L22.9685 8.0275C23.4815 8.5825 23.943 9.1845 24.3495 9.8255L23.498 10.317C23.2585 10.455 23.1765 10.7605 23.315 11C23.408 11.1605 23.5755 11.25 23.7485 11.25C23.8335 11.25 23.9195 11.2285 23.998 11.183L24.8515 10.69C25.2025 11.3555 25.4975 12.0545 25.725 12.784L24.7675 13.041C24.501 13.1125 24.342 13.3865 24.414 13.6535C24.474 13.877 24.6755 14.024 24.8965 14.024C24.9395 14.024 24.983 14.0185 25.0265 14.007L25.981 13.751C26.145 14.479 26.246 15.2305 26.2765 16H25.2885C25.012 16 24.7885 16.2235 24.7885 16.5C24.7885 16.7765 25.012 17 25.2885 17H26.276C26.2455 17.7695 26.1445 18.521 25.9805 19.2495L25.026 18.994C24.7605 18.922 24.485 19.081 24.4135 19.3475C24.342 19.614 24.5005 19.888 24.767 19.9595ZM13.2885 3.011V1.5H11.5385C11.401 1.5 11.2885 1.3875 11.2885 1.25C11.2885 1.1125 11.401 1 11.5385 1H16.0385C16.176 1 16.2885 1.1125 16.2885 1.25C16.2885 1.3875 16.176 1.5 16.0385 1.5H14.2885V3.011C14.1135 3.0035 13.949 3 13.7885 3C13.628 3 13.4635 3.0035 13.2885 3.011Z" fill="#FAC641"/>
</svg>
