<svg width="20" height="32" viewBox="0 0 20 32" fill="none" xmlns="http://www.w3.org/2000/svg">
<path d="M17.5 1H2.5C1.6716 1 1 1.67154 1 2.5V29.5C1 30.3284 1.67154 31 2.5 31H17.5C18.3284 31 19 30.3285 19 29.5V2.5C19 1.67154 18.3284 1 17.5 1ZM18 5.00002H6.50002C6.22387 5.00002 6.00004 5.22385 6.00004 5.5C6.00004 5.77615 6.22387 5.99998 6.50002 5.99998H18V25.5H16.5C16.2239 25.5 16.0001 25.7238 16.0001 26C16.0001 26.2761 16.2239 26.4999 16.5 26.4999H18V29.4999C18 29.7761 17.7762 29.9999 17.5001 29.9999H2.5C2.22385 29.9999 2.00002 29.7761 2.00002 29.4999V26.4999H13.5C13.7762 26.4999 14 26.2761 14 26C14 25.7238 13.7762 25.5 13.5 25.5H2.00002V5.99998H3.50002C3.77617 5.99998 4 5.77615 4 5.5C4 5.22385 3.77617 5.00002 3.50002 5.00002H2.00002V2.5C2.00002 2.22385 2.22385 2.00002 2.5 2.00002H17.5C17.7762 2.00002 18 2.22385 18 2.5V5.00002Z" fill="#FAC641" stroke="#FAC641" stroke-width="0.3"/>
<path d="M10.4999 27.9999H9.49986C9.22371 27.9999 8.99988 28.2238 8.99988 28.4999C8.99988 28.7761 9.22371 28.9999 9.49986 28.9999H10.4999C10.776 28.9999 10.9999 28.7761 10.9999 28.4999C10.9999 28.2238 10.776 27.9999 10.4999 27.9999Z" fill="#FAC641"/>
</svg>
