<svg width="18" height="30" viewBox="0 0 18 30" fill="none" xmlns="http://www.w3.org/2000/svg">
<path d="M15.9203 12.9479L15.9035 12.9731L12.5356 18.0256L15.9203 12.9479ZM15.9203 12.9479V12.9176M15.9203 12.9479V12.9176M15.9203 12.9176V7.03125V6.93125H15.8203H8.93967H8.79811L8.84542 7.06467C9.22187 8.12633 10.2362 8.88906 11.4258 8.88906H13.1836C13.6138 8.88906 13.9625 9.23774 13.9625 9.66797C13.9625 10.0543 13.6807 10.3743 13.3115 10.4354L13.2896 10.439M15.9203 12.9176L13.2896 10.439M12.4047 28.3422H12.3047H8.78906H8.68906V28.2422V23.7305C8.68906 23.3002 8.34039 22.9516 7.91016 22.9516C7.47993 22.9516 7.13125 23.3002 7.13125 23.7305V28.2422V28.3422H7.03125H3.51562H3.41563V28.2422V20.4222C3.41563 19.0164 3.08324 17.6085 2.45458 16.3509C1.93334 15.3085 1.65781 14.1417 1.65781 12.9762V10.3958V10.2543L1.79122 10.3016C2.05589 10.3954 2.34032 10.4469 2.63672 10.4469C3.28576 10.4469 3.8784 10.2015 4.3278 9.7988L4.39455 9.73899L4.46129 9.79882C4.91065 10.2017 5.50328 10.4469 6.15234 10.4469C7.05353 10.4469 7.84612 9.97415 8.29649 9.26313L8.36204 9.15963L8.45031 9.24458C9.02179 9.79458 9.74358 10.1886 10.5478 10.3563L10.7179 10.3917L10.6018 10.521C9.542 11.701 8.88906 13.3069 8.88906 14.9414C8.88906 15.3716 9.23774 15.7203 9.66797 15.7203C10.0982 15.7203 10.4469 15.3716 10.4469 14.9414C10.4469 13.0933 11.5795 11.2341 13.1518 10.5199M12.4047 28.3422L13.1518 10.5199M12.4047 28.3422V28.2422M12.4047 28.3422V28.2422M13.1518 10.5199C13.1937 10.5007 13.2331 10.4777 13.2713 10.4515M13.1518 10.5199L13.2713 10.4515M12.4047 28.2422V18.4577C12.4047 18.304 12.4503 18.1537 12.5355 18.0257L12.4047 28.2422ZM13.2896 10.439L13.2713 10.4515M13.2896 10.439L13.2713 10.4515M11.359 0.748074L11.4258 0.807873L11.4925 0.748074C11.9419 0.345381 12.5346 0.1 13.1836 0.1C14.5822 0.1 15.7203 1.23809 15.7203 2.63672V5.27344V5.37344H15.8203H16.6992C17.1294 5.37344 17.4781 5.72211 17.4781 6.15234V13.1836C17.4781 13.3373 17.4325 13.4876 17.3472 13.6157L13.9793 18.6682L13.9625 18.6934V18.7237V29.1211C13.9625 29.5513 13.6138 29.9 13.1836 29.9H2.63672C2.20649 29.9 1.85781 29.5513 1.85781 29.1211V20.4222C1.85781 19.2568 1.58228 18.09 1.06105 17.0475C0.432383 15.7899 0.1 14.3821 0.1 12.9762V6.15234C0.1 4.75372 1.23809 3.61562 2.63672 3.61562C2.96676 3.61562 3.282 3.67968 3.57159 3.79486L3.6756 3.83622L3.70503 3.72823C3.99838 2.65173 4.9845 1.85781 6.15234 1.85781C6.48239 1.85781 6.79763 1.92187 7.08722 2.03704L7.19123 2.07841L7.22066 1.97041C7.51401 0.893917 8.50012 0.1 9.66797 0.1C10.317 0.1 10.9097 0.345381 11.359 0.748074ZM14.0625 5.37344H14.1625V5.27344V2.63672C14.1625 2.09695 13.7234 1.65781 13.1836 1.65781C12.6438 1.65781 12.2047 2.09695 12.2047 2.63672V5.27344V5.37344H12.3047H14.0625ZM10.5469 5.37344H10.6469V5.27344V2.63672C10.6469 2.09695 10.2077 1.65781 9.66797 1.65781C9.1282 1.65781 8.68906 2.09695 8.68906 2.63672V2.64154V2.64637V2.65121V2.65604V2.66089V2.66573V2.67058V2.67543V2.68028V2.68514V2.69001V2.69487V2.69974V2.70462V2.70949V2.71437V2.71926V2.72415V2.72904V2.73393V2.73883V2.74373V2.74864V2.75354V2.75846V2.76337V2.76829V2.77321V2.77814V2.78306V2.788V2.79293V2.79787V2.80281V2.80776V2.81271V2.81766V2.82261V2.82757V2.83253V2.83749V2.84246V2.84743V2.85241V2.85738V2.86236V2.86735V2.87233V2.87732V2.88231V2.88731V2.89231V2.89731V2.90231V2.90732V2.91233V2.91734V2.92236V2.92738V2.9324V2.93743V2.94245V2.94748V2.95252V2.95755V2.96259V2.96764V2.97268V2.97773V2.98278V2.98783V2.99289V2.99794V3.00301V3.00807V3.01314V3.0182V3.02328V3.02835V3.03343V3.03851V3.04359V3.04867V3.05376V3.05885V3.06394V3.06904V3.07413V3.07923V3.08434V3.08944V3.09455V3.09966V3.10477V3.10988V3.115V3.12012V3.12524V3.13036V3.13549V3.14062V3.14575V3.15088V3.15602V3.16116V3.1663V3.17144V3.17658V3.18173V3.18688V3.19203V3.19718V3.20233V3.20749V3.21265V3.21781V3.22297V3.22814V3.23331V3.23848V3.24365V3.24882V3.254V3.25917V3.26435V3.26953V3.27472V3.2799V3.28509V3.29028V3.29547V3.30066V3.30586V3.31105V3.31625V3.32145V3.32665V3.33185V3.33706V3.34227V3.34747V3.35268V3.3579V3.36311V3.36832V3.37354V3.37876V3.38398V3.3892V3.39443V3.39965V3.40488V3.41011V3.41533V3.42057V3.4258V3.43103V3.43627V3.4415V3.44674V3.45198V3.45722V3.46247V3.46771V3.47296V3.4782V3.48345V3.4887V3.49395V3.4992V3.50446V3.50971V3.51497V3.52022V3.52548V3.53074V3.536V3.54127V3.54653V3.55179V3.55706V3.56232V3.56759V3.57286V3.57813V3.5834V3.58867V3.59395V3.59922V3.6045V3.60977V3.61505V3.62033V3.6256V3.63088V3.63616V3.64145V3.64673V3.65201V3.6573V3.66258V3.66787V3.67315V3.67844V3.68373V3.68902V3.69431V3.6996V3.70489V3.71018V3.71548V3.72077V3.72606V3.73136V3.73665V3.74195V3.74725V3.75254V3.75784V3.76314V3.76844V3.77374V3.77904V3.78434V3.78964V3.79494V3.80024V3.80554V3.81085V3.81615V3.82145V3.82676V3.83206V3.83737V3.84267V3.84798V3.85328V3.85859V3.8639V3.8692V3.87451V3.87982V3.88512V3.89043V3.89574V3.90105V3.90636V3.91166V3.91697V3.92228V3.92759V3.9329V3.93821V3.94352V3.94882V3.95413V3.95944V3.96475V3.97006V3.97537V3.98068V3.98599V3.9913V3.99661V4.00192V4.00722V4.01253V4.01784V4.02315V4.02846V4.03377V4.03907V4.04438V4.04969V4.055V4.0603V4.06561V4.07092V4.07622V4.08153V4.08683V4.09214V4.09744V4.10275V4.10805V4.11335V4.11866V4.12396V4.12926V4.13456V4.13987V4.14517V4.15047V4.15577V4.16107V4.16637V4.17166V4.17696V4.18226V4.18756V4.19285V4.19815V4.20344V4.20873V4.21403V4.21932V4.22461V4.2299V4.23519V4.24048V4.24577V4.25106V4.25635V4.26164V4.26692V4.27221V4.27749V4.28277V4.28806V4.29334V4.29862V4.3039V4.30918V4.31446V4.31973V4.32501V4.33028V4.33556V4.34083V4.3461V4.35137V4.35664V4.36191V4.36718V4.37244V4.37771V4.38297V4.38824V4.3935V4.39876V4.40402V4.40928V4.41453V4.41979V4.42504V4.4303V4.43555V4.4408V4.44605V4.4513V4.45654V4.46179V4.46703V4.47228V4.47752V4.48276V4.488V4.49323V4.49847V4.5037V4.50893V4.51417V4.5194V4.52462V4.52985V4.53507V4.5403V4.54552V4.55074V4.55596V4.56117V4.56639V4.5716V4.57682V4.58203V4.58723V4.59244V4.59765V4.60285V4.60805V4.61325V4.61845V4.62364V4.62884V4.63403V4.63922V4.64441V4.6496V4.65478V4.65996V4.66515V4.67032V4.6755V4.68068V4.68585V4.69102V4.69619V4.70136V4.70652V4.71169V4.71685V4.72201V4.72716V4.73232V4.73747V4.74262V4.74777V4.75292V4.75806V4.7632V4.76834V4.77348V4.77861V4.78375V4.78888V4.794V4.79913V4.80425V4.80938V4.81449V4.81961V4.82473V4.82984V4.83495V4.84005V4.84516V4.85026V4.85536V4.86046V4.86555V4.87064V4.87573V4.88082V4.8859V4.89099V4.89607V4.90114V4.90622V4.91129V4.91636V4.92142V4.92649V4.93155V4.93661V4.94166V4.94671V4.95177V4.95681V4.96186V4.9669V4.97194V4.97697V4.98201V4.98704V4.99206V4.99709V5.00211V5.00713V5.01215V5.01716V5.02217V5.02718V5.03218V5.03718V5.04218V5.04717V5.05217V5.05716V5.06214V5.06713V5.0721V5.07708V5.08206V5.08703V5.09199V5.09696V5.10192V5.10688V5.11183V5.11678V5.12173V5.12668V5.13162V5.13656V5.14149V5.14642V5.15135V5.15628V5.1612V5.16612V5.17103V5.17594V5.18085V5.18575V5.19066V5.19555V5.20045V5.20534V5.21023V5.21511V5.21999V5.22487V5.22974V5.23461V5.23948V5.24434V5.2492V5.25405V5.2589V5.26375V5.2686V5.27344V5.37344H8.78906H10.5469ZM6.15234 3.41563C5.61257 3.41563 5.17344 3.85476 5.17344 4.39453V4.39707V4.39965V4.40229V4.40497V4.40771V4.4105V4.41334V4.41622V4.41916V4.42215V4.42518V4.42827V4.4314V4.43458V4.43781V4.44109V4.44441V4.44779V4.45121V4.45467V4.45819V4.46175V4.46536V4.46902V4.47272V4.47647V4.48026V4.4841V4.48799V4.49192V4.49589V4.49991V4.50398V4.50809V4.51224V4.51644V4.52068V4.52497V4.5293V4.53367V4.53809V4.54255V4.54705V4.55159V4.55618V4.56081V4.56548V4.57019V4.57494V4.57974V4.58458V4.58945V4.59437V4.59933V4.60433V4.60937V4.61445V4.61957V4.62472V4.62992V4.63516V4.64043V4.64575V4.6511V4.65649V4.66192V4.66739V4.6729V4.67844V4.68402V4.68964V4.69529V4.70098V4.70671V4.71247V4.71827V4.72411V4.72998V4.73589V4.74183V4.74781V4.75382V4.75987V4.76595V4.77206V4.77821V4.7844V4.79062V4.79687V4.80315V4.80947V4.81582V4.8222V4.82862V4.83507V4.84155V4.84806V4.85461V4.86118V4.86779V4.87443V4.8811V4.8878V4.89453V4.90129V4.90808V4.9149V4.92175V4.92863V4.93554V4.94248V4.94945V4.95645V4.96347V4.97052V4.97761V4.98472V4.99185V4.99902V5.00621V5.01343V5.02068V5.02795V5.03525V5.04257V5.04993V5.0573V5.06471V5.07214V5.07959V5.08707V5.09458V5.10211V5.10966V5.11724V5.12484V5.13247V5.14012V5.14779V5.15549V5.16321V5.17095V5.17872V5.18651V5.19432V5.20215V5.21001V5.21788V5.22578V5.2337V5.24164V5.2496V5.25759V5.26559V5.27361V5.28166V5.28972V5.2978V5.3059V5.31403V5.32217V5.33033V5.33851V5.3467V5.35492V5.36315V5.37141V5.37968V5.38796V5.39627V5.40459V5.41293V5.42129V5.42966V5.43805V5.44645V5.45487V5.46331V5.47176V5.48023V5.48871V5.49721V5.50572V5.51424V5.52279V5.53134V5.53991V5.54849V5.55709V5.5657V5.57432V5.58296V5.59161V5.60027V5.60894V5.61763V5.62632V5.63503V5.64375V5.65249V5.66123V5.66999V5.67875V5.68753V5.69631V5.70511V5.71391V5.72273V5.73156V5.74039V5.74924V5.75809V5.76695V5.77582V5.7847V5.79359V5.80248V5.81138V5.82029V5.82921V5.83814V5.84707V5.85601V5.86495V5.8739V5.88286V5.89182V5.90079V5.90977V5.91875V5.92773V5.93672V5.94572V5.95472V5.96372V5.97273V5.98174V5.99076V5.99978V6.0088V6.01783V6.02686V6.03589V6.04492V6.05396V6.063V6.07204V6.08108V6.09012V6.09917V6.10822V6.11726V6.12631V6.13536V6.14441V6.15346V6.16251V6.17156V6.18061V6.18965V6.1987V6.20775V6.21679V6.22584V6.23488V6.24392V6.25296V6.26199V6.27103V6.28006V6.28908V6.29811V6.30713V6.31615V6.32516V6.33418V6.34318V6.35218V6.36118V6.37018V6.37916V6.38815V6.39713V6.4061V6.41507V6.42403V6.43298V6.44193V6.45088V6.45981V6.46874V6.47766V6.48658V6.49549V6.50439V6.51328V6.52216V6.53104V6.53991V6.54876V6.55761V6.56646V6.57529V6.58411V6.59292V6.60173V6.61052V6.6193V6.62807V6.63683V6.64559V6.65433V6.66305V6.67177V6.68048V6.68917V6.69785V6.70652V6.71518V6.72382V6.73245V6.74107V6.74968V6.75827V6.76685V6.77541V6.78396V6.7925V6.80102V6.80953V6.81802V6.8265V6.83496V6.8434V6.85184V6.86025V6.86865V6.87703V6.8854V6.89375V6.90208V6.9104V6.9187V6.92698V6.93524V6.94349V6.95172V6.95993V6.96812V6.97629V6.98444V6.99258V7.00069V7.00879V7.01687V7.02492V7.03296V7.04098V7.04897V7.05695V7.0649V7.07284V7.08075V7.08864V7.09651V7.10436V7.11218V7.11999V7.12777V7.13552V7.14326V7.15097V7.15866V7.16633V7.17397V7.18159V7.18918V7.19675V7.2043V7.21182V7.21932V7.22679V7.23423V7.24165V7.24905V7.25642V7.26376V7.27108V7.27837V7.28563V7.29287V7.30008V7.30726V7.31442V7.32155V7.32865V7.33572V7.34276V7.34978V7.35676V7.36372V7.37065V7.37755V7.38442V7.39126V7.39807V7.40485V7.4116V7.41832V7.42501V7.43167V7.4383V7.4449V7.45146V7.458V7.4645V7.47097V7.4774V7.48381V7.49018V7.49652V7.50283V7.5091V7.51534V7.52155V7.52772V7.53386V7.53996V7.54603V7.55207V7.55807V7.56404V7.56997V7.57586V7.58172V7.58754V7.59333V7.59908V7.6048V7.61048V7.61612V7.62172V7.62729V7.63282V7.63831V7.64377V7.64918V7.65456V7.6599V7.6652V7.67047V7.67569V7.68087V7.68602V7.69112V7.69619V7.70121V7.7062V7.71114V7.71605V7.72091V7.72573V7.73052V7.73526V7.73995V7.74461V7.74922V7.7538V7.75833V7.76281V7.76726V7.77166V7.77602V7.78033V7.7846V7.78883V7.79301V7.79715V7.80125V7.8053V7.8093V7.81326V7.81718V7.82105V7.82487V7.82865V7.83238V7.83607V7.83971V7.8433V7.84685V7.85035V7.8538V7.8572V7.86056V7.86387V7.86713V7.87035V7.87351V7.87663V7.87969V7.88271V7.88568V7.8886V7.89147V7.89429V7.89706V7.89978V7.90245V7.90507V7.90764V7.91016C5.17344 8.44993 5.61257 8.88906 6.15234 8.88906C6.69212 8.88906 7.13125 8.44993 7.13125 7.91016V4.39453C7.13125 3.85476 6.69212 3.41563 6.15234 3.41563ZM3.61562 6.15234C3.61562 5.61257 3.17649 5.17344 2.63672 5.17344C2.09695 5.17344 1.65781 5.61257 1.65781 6.15234V7.91016C1.65781 8.44993 2.09695 8.88906 2.63672 8.88906C3.17649 8.88906 3.61562 8.44993 3.61562 7.91016V6.15234Z" fill="#FAC641" stroke="black" stroke-width="0.2"/>
</svg>
