<svg width="60" height="60" viewBox="0 0 60 60" fill="none" xmlns="http://www.w3.org/2000/svg">
<path d="M54.5 26.5H36.5H36V11H40V7H59V45H54.5V48.5H50.5L50 45L53 43.5L52 39L54.5 38V33.5L57.5 30L54.5 26.5Z" fill="#FAC641"/>
<path d="M59 6H40C39.4478 6 39 6.44775 39 7V10H36C35.4478 10 35 10.4478 35 11V22.382L27.764 26H1C0.44775 26 0 26.4478 0 27V53C0 53.5522 0.44775 54 1 54H21C21.5522 54 22 53.5522 22 53V50.18L32.835 51.986C32.8895 51.9951 32.9448 51.9997 33 52H48C49.4226 51.9955 50.735 51.2334 51.444 50H55C55.5522 50 56 49.5522 56 49V46H59C59.5522 46 60 45.5522 60 45V7C60 6.44775 59.5522 6 59 6ZM20 52H2V28H20V52ZM41 8H58V29.884C57.9815 29.2533 57.8128 28.6178 57.4776 28.0316C57.1258 27.4161 56.6155 26.9059 56 26.554V11C56 10.4478 55.5522 10 55 10H41V8ZM37 12H54V26H52V17C52 16.4478 51.5522 16 51 16C50.4478 16 50 15.5522 50 15C50 14.4478 49.5522 14 49 14H42C41.4478 14 41 14.4478 41 15C41 15.5522 40.5522 16 40 16C39.4478 16 39 16.4478 39 17V26H37V12ZM50 17.829V26H41V17.829C41.8534 17.525 42.525 16.8534 42.829 16H48.171C48.475 16.8534 49.1466 17.525 50 17.829ZM54 48H52C52.0008 47.2075 51.765 46.4328 51.323 45.775C53.4076 45.0439 54.5049 42.7612 53.7738 40.6766C53.6621 40.3582 53.5106 40.0554 53.323 39.775C53.5584 39.6899 53.7851 39.5824 54 39.454V48ZM54 32H50C49.4478 32 49 32.4478 49 33C49 33.5522 49.4478 34 50 34H52C53.1046 34 54 34.8954 54 36C54 37.1046 53.1046 38 52 38H48C47.4478 38 47 38.4478 47 39C47 39.5522 47.4478 40 48 40H50C51.1046 40 52 40.8954 52 42C52 43.1046 51.1046 44 50 44H46C45.4478 44 45 44.4478 45 45C45 45.5522 45.4478 46 46 46H48C49.1046 46 50 46.8954 50 48C50 49.1046 49.1046 50 48 50H33.083L22 48.153V28H28C28.1551 28.0001 28.3081 27.9643 28.447 27.895L35 24.618V27C35 27.5522 35.4478 28 36 28H54C55.1046 28 56 28.8954 56 30C56 31.1046 55.1046 32 54 32ZM56 44V33.454C57.2448 32.7424 57.9584 31.4595 58 30.1241V44H56Z" fill="black"/>
<path d="M14 42C11.7909 42 10 43.7909 10 46C10 48.2091 11.7909 50 14 50C16.2091 50 18 48.2091 18 46C18 43.7909 16.2091 42 14 42ZM14 48C12.8954 48 12 47.1046 12 46C12 44.8954 12.8954 44 14 44C15.1046 44 16 44.8954 16 46C16 47.1046 15.1046 48 14 48Z" fill="black"/>
</svg>
