<svg width="34" height="28" viewBox="0 0 34 28" fill="none" xmlns="http://www.w3.org/2000/svg">
<path d="M30.7097 0H3.29032C1.48065 0 0 1.31264 0 2.91699C0 4.52133 1.48065 5.83397 3.29032 5.83397H30.7097C32.5194 5.83397 34 4.52133 34 2.91699C34 1.31264 32.5194 0 30.7097 0Z" fill="white"/>
<path d="M30.7097 10.6956H3.29032C1.48065 10.6956 0 12.0082 0 13.6125C0 15.2169 1.48065 16.5295 3.29032 16.5295H30.7097C32.5194 16.5295 34 15.2169 34 13.6125C34 12.0082 32.5194 10.6956 30.7097 10.6956Z" fill="white"/>
<path d="M30.7097 21.3914H3.29032C1.48065 21.3914 0 22.704 0 24.3083C0 25.9127 1.48065 27.2253 3.29032 27.2253H30.7097C32.5194 27.2253 34 25.9127 34 24.3083C34 22.704 32.5194 21.3914 30.7097 21.3914Z" fill="white"/>
</svg>
