<svg width="56" height="47" viewBox="0 0 56 47" fill="none" xmlns="http://www.w3.org/2000/svg">
<path d="M12.5 46.875V37.5V31.25H37.5V37.5V46.875H12.5Z" fill="#FAC641"/>
<path d="M37.5 9.375V0H12.5V9.375V15.625H37.5V9.375Z" fill="#FAC641"/>
<path d="M43.75 9.375H40.625V15.625V18.75H9.375V15.625V9.375H6.25C3.125 9.375 0 12.5 0 15.625V31.25C0 34.375 3.125 37.5 6.25 37.5H9.375V31.25V28.125H40.625V31.25V37.5H43.75C46.875 37.5 50 34.375 50 31.25V15.625C50 12.5 46.875 9.375 43.75 9.375Z" fill="#FAC641"/>
<path d="M19.5 45.875V37.5V32.25H42.5V37.5V45.875H19.5Z" stroke="#151515" stroke-width="2"/>
<path d="M19.5 1H42.5V9.375V14.625H19.5V9.375V1Z" stroke="#151515" stroke-width="2"/>
<path d="M46.625 19.75H47.625V18.75V15.625V10.375H49.75C50.9873 10.375 52.3082 11.0037 53.3398 12.0352C54.3713 13.0668 55 14.3877 55 15.625V31.25C55 32.4873 54.3713 33.8082 53.3398 34.8398C52.3082 35.8713 50.9873 36.5 49.75 36.5H47.625V31.25V28.125V27.125H46.625H15.375H14.375V28.125V31.25V36.5H12.25C11.0127 36.5 9.69176 35.8713 8.66023 34.8398C7.6287 33.8082 7 32.4873 7 31.25V15.625C7 14.3877 7.6287 13.0668 8.66023 12.0352C9.69176 11.0037 11.0127 10.375 12.25 10.375H14.375V15.625V18.75V19.75H15.375H46.625Z" stroke="#151515" stroke-width="2"/>
</svg>
