<svg width="65" height="22" viewBox="0 0 65 22" fill="none" xmlns="http://www.w3.org/2000/svg">
<path d="M58.4847 9.48835L52.0701 3.07378L58.4847 9.48835ZM58.4847 9.48835L2.00352 9.48835L2.00272 9.48835C1.16824 9.4897 0.5 10.1574 0.5 10.9928C0.5 11.8187 1.15899 12.5107 2.00352 12.5107H58.4831L52.07 18.9119L52.07 18.9118L52.0637 18.9183C51.4924 19.5095 51.4833 20.4677 52.0701 21.0532C52.6616 21.6443 53.6263 21.6547 54.2132 21.0498L63.1968 12.0662C63.7964 11.4832 63.7971 10.5173 63.1967 9.93455L54.2129 0.94989C53.6252 0.345493 52.6614 0.355476 52.0697 0.947233C51.4873 1.52963 51.4866 2.49114 52.0697 3.07336L58.4847 9.48835Z" fill="#FAC641" stroke="#FAC641"/>
</svg>
